<?xml version="1.0" encoding="iso-8859-1"?>
<!-- Generator: Adobe Illustrator 19.0.0, SVG Export Plug-In . SVG Version: 6.00 Build 0)  -->
<!-- License: CC0. Made by SVG Repo: https://www.svgrepo.com/svg/93171/half-note -->
<svg version="1.1" id="Capa_1" xmlns="http://www.w3.org/2000/svg" xmlns:xlink="http://www.w3.org/1999/xlink" x="0px" y="0px"
	 viewBox="0 0 290.281 290.281" style="enable-background:new 0 0 290.281 290.281;" xml:space="preserve">
<g id="XMLID_952_">
	<path id="XMLID_954_" d="M155.367,173.646c-6.239-2.566-13.111-3.922-20.305-3.922c-17.459,0-35.267,7.796-48.858,21.388
		c-25.343,25.343-28.515,63.407-7.071,84.853c9.232,9.232,22.016,14.316,35.994,14.316c17.459,0,35.267-7.796,48.858-21.388
		c11.843-11.843,19.308-26.842,21.018-42.233c0.244-2.199,0.355-4.38,0.354-6.538L185.367,0h-30V173.646z M155.187,223.346
		c-0.947,8.523-5.472,17.393-12.414,24.335c-7.89,7.89-18.225,12.601-27.646,12.601c-4.221,0-10.211-0.959-14.781-5.529
		c-9.582-9.583-6.344-29.012,7.071-42.426c7.89-7.891,18.226-12.602,27.646-12.602c4.221,0,10.211,0.959,14.781,5.529
		C155.602,211.012,155.662,219.061,155.187,223.346z"/>
	<circle id="XMLID_957_" cx="210.367" cy="275.117" r="15"/>
</g>
</svg>
