<?xml version="1.0" encoding="UTF-8" standalone="no"?>
<svg
   xmlns:dc="http://purl.org/dc/elements/1.1/"
   xmlns:cc="http://creativecommons.org/ns#"
   xmlns:rdf="http://www.w3.org/1999/02/22-rdf-syntax-ns#"
   xmlns:xlink="http://www.w3.org/1999/xlink"
   xmlns:sodipodi="http://sodipodi.sourceforge.net/DTD/sodipodi-0.dtd"
   xmlns:inkscape="http://www.inkscape.org/namespaces/inkscape"
   viewBox="0 0 3.8544009 2.5696007"
   sodipodi:docname="gruppetto.svg">
  <metadata
     id="metadata22">
    <rdf:RDF>
      <cc:Work
         rdf:about="">
        <dc:format>image/svg+xml</dc:format>
        <dc:type
           rdf:resource="http://purl.org/dc/dcmitype/StillImage" />
      </cc:Work>
    </rdf:RDF>
  </metadata>
  <defs
     id="defs20" />

  <text
  
     style="font-size:2.19950008px;text-anchor:start;fill:currentColor;font-family:Century Schoolbook L"
     x="5.6905999"
     y="-163.5945">
    <tspan
       id="tspan6" />
  </text>
  <path
     d="m 2.4938286,1.7424892 c -0.26,0 -0.468,-0.18 -0.656,-0.356 -0.188,-0.176 -0.372,-0.38800004 -0.628,-0.38800004 -0.132,0 -0.24399995,0.092 -0.24399995,0.21600004 0,0.124 0.0919999,0.212 0.19999995,0.228 0.036,-0.084 0.112,-0.124 0.192,-0.124 0.104,0 0.216,0.072 0.216,0.212 0,0.128 -0.132,0.212 -0.272,0.212 -0.268,0 -0.45599995,-0.248 -0.45599995,-0.528 0,-0.29600004 0.23999995,-0.52800008 0.53599995,-0.52800008 0.26,0 0.468,0.18000004 0.656,0.35600008 0.188,0.176 0.372,0.388 0.628,0.388 0.132,0 0.244,-0.092 0.244,-0.216 0,-0.124 -0.092,-0.212 -0.2,-0.22800004 -0.036,0.084 -0.112,0.12400004 -0.192,0.12400004 -0.104,0 -0.216,-0.072 -0.216,-0.21200004 0,-0.12800004 0.132,-0.21200004 0.272,-0.21200004 0.268,0 0.456,0.24800004 0.456,0.52800008 0,0.296 -0.24,0.528 -0.536,0.528 z"
     id="path8"
     inkscape:connector-curvature="0"
     style="fill:currentColor" />
  <a
     transform="translate(31.4631,-1.2886009)"
     xlink:href="http://lilypond.org/"
     id="a10">
    <rect
       x="0"
       y="-0.44389999"
       width="56.5755"
       height="2.0827"
       id="rect12"
       style="fill:none;stroke:none" />
  </a>
</svg>
