<?xml version="1.0" encoding="iso-8859-1"?>
<!-- Generator: Adobe Illustrator 22.1.0, SVG Export Plug-In . SVG Version: 6.00 Build 0)  -->
<svg version="1.1" id="_x34_" xmlns="http://www.w3.org/2000/svg" xmlns:xlink="http://www.w3.org/1999/xlink" x="0px" y="0px"
	 viewBox="0 0 498.7 512" style="enable-background:new 0 0 498.7 512;" xml:space="preserve">
<style type="text/css">
	.st0{fill:#F9F9FA;}
	.st1{fill:#4F2E14;}
	.st2{fill:#EF9E49;}
	.st3{fill:#805837;}
	.st4{fill:#FFFFFF;}
	.st5{opacity:0.2;fill:#040000;}
	.st6{opacity:0.5;}
	.st7{fill:#FFF7F1;}
	.st8{opacity:3.000000e-02;fill:#040000;}
</style>
<g>
	<g>
		<polygon class="st0" points="486.8,46.6 483.5,49.8 449,16.5 452.1,13.3 		"/>
		<polygon class="st0" points="475.6,56.8 472.5,60.1 439.3,28 442.3,24.8 		"/>
		<polygon class="st0" points="464.5,67 461.4,70.3 429.4,39.5 432.5,36.2 		"/>
	</g>
	<g>
		<path class="st1" d="M498.7,33.2l-1.3-18.6L483.7,1.4L465.7,0l-43.9,49.8c0,0-0.5,5.4-2.5,8.7l-0.2-0.2l0,0l0,0l-0.4,0.4L401.6,76
			l-1.1-1l-1.3,1.3l1.1,1l-14,14.2l-0.9-0.8l-1.3,1.3l0.8,0.8l-14,14.2l-0.6-0.6l-1.3,1.3l0.6,0.6l-14,14.2l-0.4-0.4l-1.3,1.3
			l0.4,0.4l-14,14.2l-0.2-0.2l-1.3,1.3l0.2,0.2l-73.8,74.6c-16.8-13.2-42.8-29.2-65.3-24.1c-29.2,6.6-44,24.9-49.9,44.2
			c-4.4,14.6-9.4,32.4-49.3,42.5C59.4,286.7,17,302.4,2.3,353.9c-15.1,53.2,49.4,109.9,49.4,109.9s1,1.1,2.8,2.8c0,0,0,0,0,0
			c0.1,0.1,0.2,0.2,0.3,0.2c12.7,12.3,63.1,57,108.6,42.2c50.9-16.6,65-59.6,73.8-101.2c8.5-40.2,26.2-45.9,40.6-50.9
			c19-6.6,36.7-22.1,42.2-51.5c4.2-22.7-12.8-48.1-26.6-64.4l71.7-76.6l0.2,0.2l1.3-1.3l-0.2-0.2l13.6-14.5l0.4,0.4l1.3-1.3
			l-0.4-0.4l13.6-14.5l0.6,0.6l1.3-1.3l-0.7-0.6l13.6-14.5l0.9,0.8l1.3-1.3l-0.9-0.8l13.6-14.5l1.1,1l1.3-1.3l-1.1-1l16.3-17.4
			l0.8-0.9l0,0l0,0l-0.1-0.1c3.2-2.1,7.8-2.1,7.8-2.1L498.7,33.2z M433.1,48.8l28.9-30c1.5-1.5,3.9-1.6,5.4-0.1l0.2,0.2
			c1.5,1.5,1.6,3.9,0.1,5.4l-28.9,30c-1.5,1.5-3.9,1.6-5.4,0.1l-0.2-0.2C431.7,52.8,431.7,50.4,433.1,48.8z M446.5,67l-0.2-0.2
			c-1.5-1.5-1.6-3.9-0.1-5.4l28.9-30c1.5-1.5,3.9-1.6,5.4-0.1l0.2,0.2c1.5,1.5,1.6,3.9,0.1,5.4l-28.9,30
			C450.5,68.4,448,68.5,446.5,67z"/>
		<path class="st1" d="M448,17.1c0.1,0.1,0.4,0.1,0.5,0l4.3-4.5c0.1-0.1,0.1-0.4,0-0.5l-0.9-1.4c-0.2-0.1-0.4-0.1-0.5,0l-4.8,5
			c-0.1,0.2-0.1,0.4,0,0.5L448,17.1z"/>
		<path class="st1" d="M438.3,28.5c0.1,0.1,0.4,0.1,0.5,0l4.3-4.5c0.1-0.1,0.1-0.4,0-0.5l-0.9-1.4c-0.2-0.1-0.4-0.1-0.5,0l-4.8,5
			c-0.1,0.1-0.1,0.4,0,0.5L438.3,28.5z"/>
		<path class="st1" d="M428.2,40.2c0.1,0.1,0.4,0.1,0.5,0l4.3-4.5c0.1-0.1,0.1-0.4,0-0.5l-0.9-1.4c-0.2-0.1-0.4-0.1-0.5,0l-4.8,5
			c-0.1,0.2-0.1,0.4,0,0.5L428.2,40.2z"/>
		<path class="st1" d="M487.9,45.9c-0.1-0.1-0.4-0.1-0.5,0l-4.3,4.5c-0.1,0.1-0.1,0.4,0,0.5l0.9,1.4c0.2,0.1,0.4,0.1,0.5,0l4.8-5
			c0.1-0.1,0.1-0.4,0-0.5L487.9,45.9z"/>
		<path class="st1" d="M476.8,56c-0.1-0.1-0.4-0.1-0.5,0l-4.3,4.5c-0.1,0.1-0.1,0.4,0,0.5l0.9,1.4c0.2,0.1,0.4,0.1,0.5,0l4.8-5
			c0.1-0.2,0.1-0.4,0-0.5L476.8,56z"/>
		<path class="st1" d="M465.5,66.5c-0.1-0.1-0.4-0.1-0.5,0l-4.3,4.5c-0.1,0.1-0.1,0.4,0,0.5l0.9,1.4c0.2,0.1,0.4,0.1,0.5,0l4.8-5
			c0.1-0.2,0.1-0.4,0-0.5L465.5,66.5z"/>
	</g>
	<g>
		<path class="st2" d="M292,242.5l-29,31l-3.2,3.4c7,17.5,3.6,38.2-10.2,52.6c-19,19.7-50.3,20.2-69.9,1.3
			c-19.7-18.9-20.2-50.2-1.3-69.9c13.9-14.5,34.5-18.6,52.2-12.2l3.2-3.3l29.8-30.1c-16.5-13-41.7-28.5-63.4-23.6
			c-31.4,7.1-43.6,27.1-48.4,42.7l-0.2,0.6c-4.4,14.8-10,33.2-50.7,43.4C62,288.3,19,303,4.3,354.5C-8.3,398.7,36,445.8,49.8,459.1
			c2.1,2,3.3,3.1,3.3,3.1l0.1,0.1c0.1,0.1,1.2,1.3,3.2,3.2c13.9,13.4,62.6,55.9,106.4,41.6c50.8-16.6,63.9-60.1,72.3-99.7
			c8.7-40.9,26.9-47.3,41.5-52.3l0.5-0.2c15.4-5.3,34.9-18.3,40.9-49.9C321.9,283.1,305.5,258.5,292,242.5z M163.4,436.6l-88.8-85.5
			l16-16.5l88.8,85.4L163.4,436.6z"/>
		<path class="st2" d="M192.3,328.6c-0.1,0.2-0.1,0.5,0.1,0.7c0,0,0.1,0,0.1,0.1c0.9,0.6,1.8,1.1,2.8,1.6c0.3,0.1,0.6,0,0.7-0.2
			c0.1-0.3,0-0.6-0.2-0.7c-0.9-0.5-1.8-1-2.7-1.6C192.7,328.3,192.4,328.4,192.3,328.6z"/>
		<path class="st2" d="M185,321.7c-0.2-0.2-0.5-0.2-0.7,0c-0.2,0.2-0.2,0.5,0,0.8c0.6,0.6,1.2,1.2,1.8,1.8c0.2,0.2,0.3,0.3,0.5,0.5
			c0.2,0.2,0.6,0.2,0.8,0c0.2-0.2,0.2-0.5,0-0.7c0,0,0,0,0,0C186.4,323.3,185.7,322.5,185,321.7z"/>
		<path class="st2" d="M188.8,326.1c-0.2,0.2-0.2,0.5,0,0.7c0,0,0,0,0,0c0.3,0.2,0.6,0.4,0.9,0.7c0.2,0.2,0.6,0.1,0.7-0.1
			c0.2-0.2,0.1-0.6-0.1-0.7c-0.3-0.2-0.6-0.4-0.8-0.6C189.3,325.8,189,325.9,188.8,326.1z"/>
		<path class="st2" d="M181.2,272.5c-0.2-0.2-0.6-0.1-0.7,0.1c-0.6,0.9-1.2,1.8-1.7,2.7c-0.1,0.2-0.1,0.5,0.1,0.6
			c0,0,0.1,0.1,0.1,0.1c0.3,0.1,0.6,0.1,0.7-0.2c0.5-0.9,1.1-1.8,1.7-2.7C181.5,273,181.4,272.7,181.2,272.5z"/>
		<path class="st2" d="M181.6,318.4c-0.2,0.2-0.3,0.5-0.1,0.7c0.2,0.3,0.4,0.6,0.7,0.9c0,0,0,0,0.1,0.1c0.2,0.2,0.5,0.2,0.7,0
			c0.2-0.2,0.3-0.5,0.1-0.7c-0.2-0.3-0.4-0.6-0.6-0.8C182.1,318.3,181.8,318.2,181.6,318.4z"/>
		<path class="st2" d="M178.2,278.7c0.1-0.3,0-0.6-0.3-0.7c-0.3-0.1-0.6,0-0.7,0.3c-0.2,0.3-0.3,0.7-0.4,1c-0.1,0.2,0,0.4,0.1,0.6
			c0,0,0.1,0.1,0.2,0.1c0.3,0.1,0.6,0,0.7-0.3C178,279.4,178.1,279.1,178.2,278.7z"/>
		<path class="st2" d="M219.1,334.2c-0.3,0-0.5,0.3-0.5,0.6c0,0.1,0.1,0.2,0.2,0.3c0.1,0.1,0.3,0.2,0.4,0.1c0.4,0,0.7-0.1,1.1-0.2
			c0.3,0,0.5-0.3,0.4-0.6s-0.3-0.5-0.6-0.4C219.8,334.1,219.4,334.1,219.1,334.2z"/>
		<path class="st2" d="M197.9,331.6c-0.1,0.2,0,0.4,0.1,0.6c0,0,0.1,0.1,0.2,0.1c0.3,0.1,0.7,0.3,1,0.4c0.3,0.1,0.6,0,0.7-0.3
			c0.1-0.3,0-0.6-0.3-0.7c-0.3-0.1-0.6-0.3-1-0.4C198.3,331.2,198,331.4,197.9,331.6z"/>
		<path class="st2" d="M222.8,334c0,0.1,0.1,0.2,0.2,0.3c0.1,0.1,0.3,0.2,0.5,0.1c1-0.2,2.1-0.5,3.1-0.9c0.3-0.1,0.4-0.4,0.3-0.7
			c-0.1-0.3-0.4-0.4-0.7-0.3c-1,0.3-2,0.6-3,0.9C222.9,333.5,222.8,333.8,222.8,334z"/>
		<path class="st2" d="M208.6,334.1c-0.3,0-0.6,0.2-0.6,0.5c0,0.2,0,0.3,0.2,0.5c0.1,0.1,0.2,0.1,0.3,0.1c0.4,0,0.7,0.1,1.1,0.1
			c0.3,0,0.6-0.2,0.6-0.5c0-0.3-0.2-0.6-0.5-0.6C209.3,334.2,209,334.2,208.6,334.1z"/>
		<path class="st2" d="M201.8,333.2c-0.1,0.2,0,0.4,0.1,0.5c0.1,0.1,0.1,0.1,0.2,0.1c1,0.3,2.1,0.6,3.1,0.8c0.3,0.1,0.6-0.1,0.6-0.4
			c0.1-0.3-0.1-0.6-0.4-0.6c-1-0.2-2-0.5-3-0.8C202.2,332.7,201.9,332.9,201.8,333.2z"/>
		<path class="st2" d="M212.3,335c0,0.2,0.1,0.3,0.2,0.4c0.1,0.1,0.2,0.1,0.4,0.1c1.1,0,2.2,0,3.2,0c0.3,0,0.5-0.3,0.5-0.6
			c0-0.3-0.3-0.5-0.6-0.5c-1,0.1-2.1,0.1-3.1,0C212.5,334.5,212.3,334.7,212.3,335z"/>
		<path class="st2" d="M191.6,262.9c0.2-0.2,0.3-0.5,0.1-0.7c-0.2-0.2-0.5-0.3-0.7-0.1c-0.3,0.2-0.6,0.4-0.9,0.6
			c-0.2,0.2-0.3,0.5-0.1,0.7c0,0,0,0,0.1,0.1c0.2,0.2,0.5,0.2,0.7,0C191,263.3,191.3,263.1,191.6,262.9z"/>
		<path class="st2" d="M188.3,264.7c-0.2-0.2-0.5-0.2-0.7-0.1c-0.8,0.7-1.6,1.4-2.4,2.2c-0.2,0.2-0.2,0.5,0,0.8c0,0,0,0,0,0
			c0.2,0.2,0.5,0.2,0.7,0c0.7-0.7,1.5-1.5,2.3-2.2C188.5,265.3,188.5,264.9,188.3,264.7z"/>
		<path class="st2" d="M197.2,259c-0.1-0.3-0.4-0.4-0.7-0.3c-1,0.5-1.9,1-2.9,1.5c-0.3,0.1-0.3,0.5-0.2,0.7c0,0,0.1,0.1,0.1,0.1
			c0.2,0.2,0.4,0.2,0.6,0.1c0.9-0.5,1.8-1,2.8-1.5C197.3,259.6,197.4,259.3,197.2,259z"/>
		<path class="st2" d="M207.4,255.9c-0.1-0.3-0.3-0.5-0.6-0.4c-1.1,0.2-2.1,0.4-3.2,0.7c-0.3,0.1-0.5,0.4-0.4,0.7
			c0,0.1,0.1,0.2,0.1,0.2c0.1,0.1,0.3,0.2,0.5,0.1c1-0.3,2-0.5,3.1-0.7C207.2,256.5,207.4,256.2,207.4,255.9z"/>
		<path class="st2" d="M200.9,258.1c0.3-0.1,0.4-0.4,0.3-0.7c-0.1-0.3-0.4-0.4-0.7-0.3c-0.3,0.1-0.7,0.2-1,0.4
			c-0.3,0.1-0.4,0.4-0.3,0.7c0,0.1,0.1,0.1,0.1,0.2c0.1,0.1,0.4,0.2,0.6,0.1C200.2,258.3,200.5,258.2,200.9,258.1z"/>
		<path class="st2" d="M183.8,269.9c0.2-0.2,0.2-0.6-0.1-0.7c-0.2-0.2-0.6-0.2-0.7,0.1c-0.2,0.3-0.5,0.6-0.7,0.8
			c-0.2,0.2-0.2,0.5,0,0.7c0,0,0,0,0,0c0.2,0.2,0.6,0.1,0.7-0.1C183.4,270.5,183.6,270.2,183.8,269.9z"/>
		<path class="st2" d="M174.1,300.7c0.1,0.1,0.3,0.2,0.4,0.1c0.3,0,0.5-0.3,0.5-0.6c0-0.3-0.1-0.7-0.1-1c0-0.3-0.3-0.5-0.6-0.5
			c-0.3,0-0.5,0.3-0.5,0.6c0,0.4,0.1,0.7,0.1,1.1C173.9,300.5,174,300.6,174.1,300.7z"/>
		<path class="st2" d="M176.8,310.9c0.1,0.1,0.4,0.2,0.6,0.1c0.3-0.1,0.4-0.4,0.3-0.7c-0.1-0.3-0.3-0.6-0.4-1
			c-0.1-0.3-0.4-0.4-0.7-0.3c-0.3,0.1-0.4,0.4-0.3,0.7c0.1,0.3,0.3,0.7,0.4,1C176.7,310.8,176.8,310.9,176.8,310.9z"/>
		<path class="st2" d="M175.4,306.9c0.1,0.1,0.3,0.2,0.5,0.1c0.3-0.1,0.4-0.4,0.4-0.7c-0.3-1-0.6-2-0.8-3c-0.1-0.3-0.3-0.5-0.6-0.4
			c-0.3,0.1-0.5,0.3-0.4,0.6c0.2,1.1,0.5,2.1,0.8,3.1C175.3,306.8,175.3,306.9,175.4,306.9z"/>
		<path class="st2" d="M176.4,282c-0.3-0.1-0.6,0.1-0.7,0.3c-0.3,1-0.6,2.1-0.9,3.1c0,0.2,0,0.4,0.1,0.5c0.1,0.1,0.1,0.1,0.2,0.1
			c0.3,0.1,0.6-0.1,0.6-0.4c0.3-1,0.6-2,0.9-3C176.8,282.4,176.6,282.1,176.4,282z"/>
		<path class="st2" d="M173.6,296.1c0,0.1,0.1,0.3,0.2,0.4c0.1,0.1,0.2,0.2,0.4,0.1c0.3,0,0.5-0.2,0.5-0.5c0-1,0-2.1,0.1-3.1
			c0-0.3-0.2-0.5-0.5-0.6c-0.3,0-0.5,0.2-0.6,0.5C173.6,293.9,173.6,295,173.6,296.1z"/>
		<path class="st2" d="M175,289.8c0-0.3,0.1-0.7,0.2-1c0-0.3-0.2-0.6-0.4-0.6c-0.3,0-0.6,0.1-0.6,0.4c-0.1,0.4-0.1,0.7-0.2,1.1
			c0,0.2,0,0.3,0.2,0.5c0.1,0.1,0.2,0.1,0.3,0.1C174.7,290.3,175,290.1,175,289.8z"/>
		<path class="st2" d="M179.7,316.6c0.2,0.2,0.4,0.2,0.7,0.1c0.2-0.2,0.3-0.5,0.2-0.7c-0.6-0.9-1.1-1.8-1.5-2.7
			c-0.1-0.3-0.5-0.4-0.7-0.2c-0.3,0.1-0.4,0.5-0.2,0.7c0.5,1,1,1.9,1.6,2.8C179.7,316.5,179.7,316.5,179.7,316.6z"/>
		<path class="st2" d="M244.5,270.4c0.2,0.2,0.5,0.2,0.7,0c0.2-0.2,0.3-0.5,0.1-0.7c-0.7-0.8-1.4-1.6-2.1-2.4
			c-0.2-0.2-0.5-0.2-0.7,0c-0.2,0.2-0.2,0.5,0,0.8C243.1,268.7,243.8,269.5,244.5,270.4C244.5,270.4,244.5,270.4,244.5,270.4z"/>
		<path class="st2" d="M240.1,265.8c0.2,0.2,0.6,0.2,0.8,0c0.2-0.2,0.2-0.5,0-0.8c-0.3-0.2-0.5-0.5-0.8-0.7
			c-0.2-0.2-0.6-0.2-0.7,0.1c-0.2,0.2-0.2,0.5,0,0.7c0,0,0,0,0,0C239.6,265.3,239.8,265.6,240.1,265.8z"/>
		<path class="st2" d="M232.1,259.7c0.1-0.3,0-0.6-0.2-0.7c-0.3-0.2-0.6-0.3-1-0.5c-0.3-0.1-0.6,0-0.7,0.3c-0.1,0.2,0,0.5,0.1,0.6
			c0,0,0.1,0.1,0.1,0.1c0.3,0.1,0.6,0.3,0.9,0.5C231.7,260.1,232,260,232.1,259.7z"/>
		<path class="st2" d="M236.8,263.2c0.2,0.2,0.6,0.1,0.7-0.1c0.2-0.2,0.1-0.6-0.1-0.7c-0.9-0.6-1.8-1.2-2.7-1.8
			c-0.3-0.2-0.6-0.1-0.7,0.2c-0.1,0.2-0.1,0.5,0.1,0.7c0,0,0.1,0.1,0.1,0.1C235.1,262,236,262.6,236.8,263.2z"/>
		<path class="st2" d="M245.5,318.7c-0.2,0.2-0.1,0.5,0.1,0.7c0,0,0,0,0.1,0c0.2,0.2,0.6,0.1,0.7-0.1c0.2-0.3,0.4-0.6,0.6-0.9
			c0.2-0.2,0.1-0.6-0.1-0.7c-0.2-0.2-0.6-0.1-0.7,0.1C245.9,318.1,245.7,318.4,245.5,318.7z"/>
		<path class="st2" d="M247,273.8c0.2,0.2,0.4,0.2,0.7,0.1c0.2-0.2,0.3-0.5,0.2-0.7c-0.2-0.3-0.4-0.6-0.6-0.9
			c-0.2-0.2-0.5-0.3-0.7-0.1c-0.2,0.2-0.3,0.5-0.1,0.7C246.5,273.1,246.7,273.4,247,273.8C246.9,273.8,247,273.8,247,273.8z"/>
		<path class="st2" d="M218,255.5c0-0.3-0.2-0.5-0.5-0.6c-1.1-0.1-2.2-0.1-3.2-0.1c-0.3,0-0.5,0.2-0.5,0.5c0,0.2,0.1,0.3,0.2,0.4
			c0.1,0.1,0.2,0.1,0.4,0.1c1,0,2.1,0.1,3.1,0.1C217.7,256,217.9,255.8,218,255.5z"/>
		<path class="st2" d="M228.3,258c0.1-0.3,0-0.6-0.3-0.7c-1-0.4-2-0.7-3.1-1c-0.3-0.1-0.6,0.1-0.7,0.4c-0.1,0.2,0,0.4,0.1,0.5
			c0.1,0.1,0.1,0.1,0.2,0.1c1,0.3,2,0.6,3,1C227.9,258.4,228.2,258.3,228.3,258z"/>
		<path class="st2" d="M211.6,255.4c0-0.3-0.3-0.5-0.6-0.5c-0.4,0-0.7,0.1-1.1,0.1c-0.3,0-0.5,0.3-0.5,0.6c0,0.1,0.1,0.2,0.2,0.3
			c0.1,0.1,0.3,0.2,0.4,0.1c0.3,0,0.7-0.1,1-0.1C211.4,256,211.6,255.7,211.6,255.4z"/>
		<path class="st2" d="M222.2,256.2c0.1-0.3-0.1-0.6-0.4-0.6c-0.4-0.1-0.7-0.1-1.1-0.2c-0.3-0.1-0.6,0.1-0.6,0.4
			c0,0.2,0,0.4,0.2,0.5c0.1,0.1,0.2,0.1,0.3,0.1c0.3,0.1,0.7,0.1,1,0.2C221.8,256.7,222.1,256.5,222.2,256.2z"/>
		<path class="st2" d="M247.9,315.9C247.9,315.9,248,315.9,247.9,315.9c0.4,0.2,0.7,0.1,0.8-0.1c0.5-0.9,1.1-1.9,1.5-2.8
			c0.1-0.3,0-0.6-0.2-0.7c-0.3-0.1-0.6,0-0.7,0.2c-0.5,0.9-1,1.9-1.5,2.8C247.7,315.4,247.7,315.7,247.9,315.9z"/>
		<path class="st2" d="M248.7,275.7c-0.3,0.1-0.4,0.5-0.2,0.7c0.5,0.9,1,1.9,1.4,2.8c0,0.1,0.1,0.1,0.1,0.2c0.2,0.1,0.4,0.2,0.6,0.1
			c0.3-0.1,0.4-0.4,0.3-0.7c-0.4-1-0.9-2-1.4-2.9C249.3,275.7,249,275.6,248.7,275.7z"/>
		<path class="st2" d="M241.3,323.4c-0.2,0.2-0.2,0.5,0,0.8c0,0,0,0,0,0c0.2,0.2,0.5,0.2,0.7,0c0.3-0.3,0.7-0.6,1-1
			c0.4-0.4,0.8-0.9,1.3-1.4c0.2-0.2,0.2-0.5-0.1-0.7c-0.2-0.2-0.6-0.2-0.7,0c-0.4,0.4-0.8,0.9-1.2,1.3
			C242,322.8,241.7,323.1,241.3,323.4z"/>
		<path class="st2" d="M232.7,330.3c0,0,0.1,0.1,0.1,0.1c0.2,0.2,0.4,0.2,0.6,0.1c0.9-0.5,1.9-1.1,2.8-1.7c0.2-0.2,0.3-0.5,0.2-0.7
			c-0.2-0.2-0.5-0.3-0.7-0.2c-0.9,0.6-1.8,1.1-2.7,1.6C232.7,329.8,232.6,330.1,232.7,330.3z"/>
		<path class="st2" d="M238.2,326.2c-0.2,0.2-0.3,0.5-0.1,0.7c0,0,0,0,0.1,0.1c0.2,0.2,0.5,0.2,0.7,0c0.3-0.2,0.6-0.4,0.8-0.7
			c0.2-0.2,0.3-0.5,0.1-0.7c-0.2-0.2-0.5-0.3-0.7-0.1C238.7,325.7,238.5,325.9,238.2,326.2z"/>
		<path class="st2" d="M252.6,302.5c-0.2,1-0.4,2.1-0.7,3.1c-0.1,0.2,0,0.4,0.1,0.5c0.1,0.1,0.1,0.1,0.2,0.1
			c0.3,0.1,0.6-0.1,0.7-0.4c0.3-1,0.5-2.1,0.7-3.1c0.1-0.3-0.1-0.6-0.4-0.6C252.9,302,252.7,302.2,252.6,302.5z"/>
		<path class="st2" d="M229.2,331.4c-0.3,0.1-0.4,0.4-0.3,0.7c0,0.1,0.1,0.1,0.1,0.2c0.1,0.1,0.4,0.2,0.6,0.1c0.3-0.1,0.7-0.3,1-0.4
			c0.3-0.1,0.4-0.4,0.3-0.7c-0.1-0.3-0.4-0.4-0.7-0.3C229.8,331.2,229.5,331.3,229.2,331.4z"/>
		<path class="st2" d="M250.6,309.6c-0.1,0.2,0,0.4,0.1,0.6c0,0,0.1,0.1,0.2,0.1c0.3,0.1,0.6,0,0.7-0.3c0.1-0.3,0.3-0.7,0.4-1
			c0.1-0.3,0-0.6-0.3-0.7c-0.3-0.1-0.6,0-0.7,0.3C250.8,308.9,250.7,309.2,250.6,309.6z"/>
		<path class="st2" d="M251.3,281.2c-0.3,0.1-0.4,0.4-0.3,0.7c0.4,1,0.7,2,0.9,3c0,0.1,0.1,0.2,0.1,0.2c0.1,0.1,0.3,0.2,0.5,0.1
			c0.3-0.1,0.5-0.4,0.4-0.7c-0.3-1-0.6-2.1-1-3.1C251.9,281.2,251.6,281.1,251.3,281.2z"/>
		<path class="st2" d="M254.2,298.4c0-0.3-0.2-0.5-0.5-0.6c-0.3,0-0.5,0.2-0.6,0.5c0,0.3-0.1,0.7-0.1,1c0,0.2,0,0.3,0.2,0.4
			c0.1,0.1,0.2,0.1,0.3,0.1c0.3,0,0.6-0.2,0.6-0.5C254.2,299.2,254.2,298.8,254.2,298.4z"/>
		<path class="st2" d="M253,287.3c-0.3,0.1-0.5,0.3-0.4,0.6c0.1,0.3,0.1,0.7,0.2,1c0,0.1,0.1,0.2,0.2,0.3c0.1,0.1,0.3,0.2,0.5,0.1
			c0.3,0,0.5-0.3,0.4-0.6c-0.1-0.4-0.1-0.7-0.2-1.1C253.6,287.4,253.3,287.2,253,287.3z"/>
		<path class="st2" d="M254.2,292c0-0.3-0.3-0.5-0.6-0.5c-0.3,0-0.5,0.3-0.5,0.6c0.1,1,0.1,2.1,0.1,3.1c0,0.2,0.1,0.3,0.2,0.4
			c0.1,0.1,0.2,0.1,0.4,0.1c0.3,0,0.5-0.2,0.5-0.5C254.4,294.1,254.3,293.1,254.2,292z"/>
	</g>
	
		<ellipse transform="matrix(0.9759 -0.218 0.218 0.9759 -59.2003 53.8929)" class="st3" cx="214.6" cy="295.2" rx="29.5" ry="29.5"/>
	<g>
		<rect x="428.2" y="54.4" transform="matrix(0.694 -0.72 0.72 0.694 80.4674 331.244)" class="st4" width="3.3" height="33.2"/>
		
			<rect x="412.2" y="70" transform="matrix(0.6935 -0.7204 0.7204 0.6935 62.9283 324.7269)" class="st4" width="1.9" height="36.8"/>
		
			<rect x="397.1" y="85.7" transform="matrix(0.6936 -0.7204 0.7204 0.6936 46.9759 318.6256)" class="st4" width="1.9" height="36.8"/>
		
			<rect x="382" y="101.4" transform="matrix(0.6936 -0.7204 0.7204 0.6936 31.0406 312.551)" class="st4" width="1.9" height="36.8"/>
		
			<rect x="366.9" y="117.1" transform="matrix(0.6936 -0.7204 0.7204 0.6936 15.1058 306.4754)" class="st4" width="1.9" height="36.8"/>
		
			<rect x="351.8" y="132.8" transform="matrix(0.6936 -0.7204 0.7204 0.6936 -0.8289 300.4012)" class="st4" width="1.9" height="36.8"/>
		
			<rect x="336.7" y="148.4" transform="matrix(0.6936 -0.7204 0.7204 0.6936 -16.7648 294.3253)" class="st4" width="1.9" height="36.8"/>
		
			<rect x="321.5" y="164.1" transform="matrix(0.6936 -0.7204 0.7204 0.6936 -32.699 288.2509)" class="st4" width="1.9" height="36.8"/>
		
			<rect x="306.4" y="179.8" transform="matrix(0.6936 -0.7204 0.7204 0.6936 -48.6322 282.1838)" class="st4" width="1.9" height="36.8"/>
		
			<rect x="291.3" y="195.5" transform="matrix(0.6935 -0.7204 0.7204 0.6935 -64.5649 276.127)" class="st4" width="1.9" height="36.8"/>
		
			<rect x="276.2" y="211.2" transform="matrix(0.6936 -0.7204 0.7204 0.6936 -80.5029 270.0336)" class="st4" width="1.9" height="36.8"/>
		
			<rect x="261.1" y="226.9" transform="matrix(0.6935 -0.7205 0.7205 0.6935 -96.4377 263.9838)" class="st4" width="1.9" height="36.8"/>
		
			<rect x="128.1" y="356.8" transform="matrix(0.6935 -0.7204 0.7204 0.6935 -235.8025 210.8349)" class="st4" width="3.7" height="51.5"/>
		<polygon class="st4" points="105,371.3 142.1,407.1 143.4,405.7 106.3,370 		"/>
	</g>
	<g>
		<path class="st5" d="M236.4,315.4c-11.3,11.7-30,12.1-41.7,0.8c-11.7-11.3-12.1-30-0.8-41.7c0.4-0.4,0.8-0.8,1.2-1.2
			c3,8.7,8.6,17.6,16.5,25.3c8,7.7,17,12.9,25.9,15.6C237.2,314.6,236.8,315,236.4,315.4z"/>
		
			<rect x="427.4" y="56.2" transform="matrix(0.6936 -0.7204 0.7204 0.6936 78.802 330.8032)" class="st5" width="1.7" height="33.2"/>
		
			<rect x="411.1" y="72.8" transform="matrix(0.6936 -0.7204 0.7204 0.6936 61.6358 324.2657)" class="st5" width="1.7" height="33.8"/>
		
			<rect x="396" y="88.2" transform="matrix(0.6936 -0.7204 0.7204 0.6936 45.6412 318.1638)" class="st5" width="1.7" height="34.4"/>
		
			<rect x="380.8" y="103.7" transform="matrix(0.6936 -0.7204 0.7204 0.6936 29.6338 312.0437)" class="st5" width="1.7" height="35.1"/>
		
			<rect x="365.7" y="119.1" transform="matrix(0.6936 -0.7204 0.7204 0.6936 13.7499 306.0255)" class="st5" width="1.7" height="35.6"/>
		
			<rect x="350.6" y="134.4" transform="matrix(0.6936 -0.7204 0.7204 0.6936 -2.1794 299.9174)" class="st5" width="1.7" height="36.3"/>
		
			<rect x="335.5" y="149.6" transform="matrix(0.6936 -0.7204 0.7204 0.6936 -18.0229 293.8392)" class="st5" width="1.7" height="37"/>
		
			<rect x="320.3" y="165.4" transform="matrix(0.6936 -0.7204 0.7204 0.6936 -34.0395 287.7334)" class="st5" width="1.7" height="37"/>
		
			<rect x="305.3" y="181" transform="matrix(0.6936 -0.7204 0.7204 0.6936 -49.9027 281.7126)" class="st5" width="1.7" height="37"/>
		
			<rect x="290.3" y="196.7" transform="matrix(0.6936 -0.7204 0.7204 0.6936 -65.7655 275.6932)" class="st5" width="1.7" height="37"/>
		
			<rect x="275.1" y="212.5" transform="matrix(0.6936 -0.7204 0.7204 0.6936 -81.8069 269.5779)" class="st5" width="1.7" height="37"/>
		
			<rect x="259.9" y="228.3" transform="matrix(0.6936 -0.7204 0.7204 0.6936 -97.8484 263.4619)" class="st5" width="1.7" height="37"/>
	</g>
	<g class="st6">
		<polygon class="st7" points="453.2,63 439.4,80.3 439.4,80.3 134.3,399.3 134.7,399.7 441,79.4 440.9,79.3 453.6,63.3 		"/>
		<polygon class="st7" points="435.5,76.6 435.5,76.6 130,395.2 130.4,395.6 437,75.9 461.7,50.2 461.3,49.8 		"/>
		<polygon class="st7" points="469.9,37.6 469.5,37.2 433,71.7 432.9,71.6 431.7,72.9 431.7,72.9 431.7,72.9 125.8,391.1 
			126.2,391.5 432.1,73.3 		"/>
		<polygon class="st7" points="428.2,69.6 428.2,69.5 429.4,68.3 429.4,68.3 462.5,30.4 462.1,30.1 427.9,69.2 121.5,387 
			121.9,387.3 428.2,69.6 		"/>
		<polygon class="st7" points="424.4,65.9 424.5,65.8 425.6,64.6 425.5,64.6 449.8,37.9 449.4,37.6 424.1,65.4 117.2,382.9 
			117.6,383.2 424.4,65.8 		"/>
		<polygon class="st7" points="420.5,62.2 437.6,47.1 437.2,46.7 421.5,60.6 421.4,60.5 112.9,378.7 113.3,379.1 420.5,62.2 		"/>
	</g>
	<path class="st8" d="M160.1,507.5c-44.1,14.4-92.8-27.1-107.4-40.9c18.8,11.6,41.2,19.8,63.6,14.4c53.1-12.7,70.9-55.3,83.3-96.9
		c11.9-40.3,30.4-44.6,45.5-48.5c19.9-5.1,39.2-19.5,47.1-49c6-22.1-8.1-48.3-20.5-66c2,1.8,3.7,3.3,4.9,4.5
		c10.4,10,45.9,47,40,78.7c-5.5,29.4-23.2,44.9-42.2,51.5c-14.4,5-32,10.7-40.6,50.9C225.1,448,211,490.9,160.1,507.5z"/>
</g>
</svg>
