<?xml version="1.0" encoding="utf-8"?>

<!-- Uploaded to: SVG Repo, www.svgrepo.com, Generator: SVG Repo Mixer Tools -->
<svg version="1.1" id="Icons" xmlns="http://www.w3.org/2000/svg" xmlns:xlink="http://www.w3.org/1999/xlink" 
	 viewBox="0 0 32 32" xml:space="preserve">
<style type="text/css">
	.st0{fill:none;stroke:#000000;stroke-width:2;stroke-linejoin:round;stroke-miterlimit:10;}
	.st1{fill:none;stroke:#000000;stroke-width:2;stroke-linecap:round;stroke-linejoin:round;stroke-miterlimit:10;}
</style>
<path class="st1" d="M3,29h26V10.8C29,6.5,25.5,3,21.2,3h0c-3.1,0-6,1.9-7.2,4.8L12.2,12c-0.7,1.8-2.5,3-4.4,3h0
	C5.1,15,3,17.1,3,19.8V29z"/>
<line class="st1" x1="3" y1="23" x2="29" y2="23"/>
<line class="st1" x1="6" y1="26" x2="6" y2="23"/>
<line class="st1" x1="9" y1="26" x2="9" y2="23"/>
<line class="st1" x1="13" y1="26" x2="13" y2="23"/>
<line class="st1" x1="16" y1="26" x2="16" y2="23"/>
<line class="st1" x1="19" y1="26" x2="19" y2="23"/>
<line class="st1" x1="23" y1="26" x2="23" y2="23"/>
<line class="st1" x1="26" y1="26" x2="26" y2="23"/>
</svg>