<?xml version="1.0" encoding="utf-8"?>
<!-- Svg Vector Icons : http://www.onlinewebfonts.com/icon -->
<!DOCTYPE svg PUBLIC "-//W3C//DTD SVG 1.1//EN" "http://www.w3.org/Graphics/SVG/1.1/DTD/svg11.dtd">
<svg version="1.1" xmlns="http://www.w3.org/2000/svg" xmlns:xlink="http://www.w3.org/1999/xlink" x="0px" y="0px" viewBox="0 0 256 256" enable-background="new 0 0 256 256" xml:space="preserve">
<metadata> Svg Vector Icons : http://www.onlinewebfonts.com/icon </metadata>
<g><g><g><path fill="#000000" d="M216.8,14.6c-0.8,0.5-1.7,1.5-1.8,2.1c-0.3,1.3,0.3,3.5,1.1,4c0.3,0.1,0.5,0.5,0.5,0.7c0,0.4-7,4.9-7.6,4.9c-0.1,0-1.1-0.8-2.1-1.7c-1.1-0.9-2.3-1.7-2.9-1.7c-3.6,0-5.6,4.1-3.5,6.9l0.9,1.2l-3.8,2.3l-3.9,2.3l-1.9-1.8c-2.2-2-4.1-2.2-6-0.7c-1.5,1.2-1.8,3.9-0.4,5.8c0.8,1.1,0.8,1.2-0.4,1.9c-2.2,1.4-5.5,5.3-6.9,7.9c-1.5,3.2-2.5,7.9-2.1,10.5l0.3,1.8l-26.1,26l-26.1,26l0.3-2.7c0.1-1.5,0.6-5.7,1.1-9.5c0.9-7.5,0.6-11-1.3-15.9c-3.1-8-10.3-12.5-17.9-11.2c-5.8,1-12.9,5.2-18.1,10.6c-5,5.3-8.1,10.6-13.6,23.6c-3.4,8-5.9,12.3-8.4,14.2c-1,0.8-8.8,3.9-18.6,7.6c-9.3,3.5-18.1,6.9-19.5,7.5c-10.6,5.3-17.4,15.6-18,27.7c-0.4,8.5,1.5,15.3,8,28.1c12.7,25,31.1,41.3,53,46.7c10,2.5,18.3,2.7,26.8,0.8c10.5-2.5,17.9-9.2,21.5-19.7c0.5-1.5,2.6-10.1,4.6-19.1c2.6-11.7,4.1-17,4.9-18.5c1.8-3.1,5.9-6,15-10.6c12.9-6.6,16-9,17.5-14c0.9-3.1,0.9-7.8,0-10.6c-0.9-2.6-3.5-5.8-6.1-7.5c-2.4-1.6-9.4-3.8-14-4.6l-3.6-0.6l28.6-28.6l28.5-28.5l2.9-0.3c3.7-0.3,7.6-1.8,10.4-3.6c1.4-1,5.6-5.6,10.7-11.9l8.5-10.4l3.1-0.6c7.4-1.5,11.4-4.2,14.1-9.6c1.5-2.9,1.6-3.6,1.6-7.6c0-3.8-0.2-4.7-1.4-7.1c-1.7-3.5-4.4-6.3-7.7-8c-2.2-1.1-3.3-1.3-7.7-1.5c-5-0.2-5.2-0.2-6.8-1.8C220.2,13.7,218.7,13.4,216.8,14.6z M233,26.4c1.4,0.7,2.6,1.8,3.6,3.3c1.3,2,1.4,2.6,1.3,5.2c-0.1,2.3-0.5,3.4-1.5,4.8c-1.8,2.2-3.4,3.1-8,4c-2.1,0.4-4.3,1-5,1.2c-0.7,0.3-5.2,5.4-10.2,11.5c-10.3,12.5-11.2,13.3-16.8,13.3c-3.9,0-6.7-1.2-9.1-3.8c-1.7-1.9-3.3-5.8-3.3-8.1c0-2.4,1.6-6.1,3.3-7.9c1.7-1.8,34.7-22,38.6-23.7C228.2,25.1,230.5,25.2,233,26.4z M182.7,72.8l3.2,2.9l-42.2,42.2c-23.2,23.2-42.4,42.2-42.6,42.2c-0.6,0-6.1-5.4-6.1-6.1c0-0.6,83.7-84.4,84.2-84.3C179.3,69.8,180.9,71.2,182.7,72.8z M111.7,82.5c2,0.9,3.5,2.4,4.8,5.4c0.9,1.9,1.1,3.3,1.1,6.8c0,3.5-2,22.9-2.9,27.2c-0.1,0.5-6.8,7.5-14.8,15.5c-8,8-14.7,15.1-14.9,15.7c-0.5,2,0.8,3.8,7.6,10.6c6.2,6.1,6.9,6.6,8.6,6.6c1.8,0,2.4-0.6,15.6-13.7l13.7-13.7l4.3,0.6c10.3,1.4,15.3,3,17.6,5.6c1.3,1.5,1.5,2,1.5,4.5c0,4.5-1.1,5.4-13.1,11.6c-4.1,2.1-8.9,4.7-10.5,5.7c-4,2.6-7.7,6.5-9.2,9.6c-0.8,1.7-2.6,8.8-5.1,19.6c-2.1,9.3-4.4,18.5-5.2,20.4c-2.4,6-7.6,10.5-14.2,12.2c-13.2,3.4-31.1-0.8-44.6-10.5c-13.2-9.4-25.5-26.6-31.9-44.6c-1.8-5-2.4-11.7-1.5-16.2c1.3-6.2,6.4-13,12-16c1.4-0.7,10.2-4.2,19.7-7.7c10.3-3.8,18.3-7.1,19.7-8c4.5-2.9,7.7-7.7,11.9-17.7c3.1-7.5,6.4-14,8.4-17c3.7-5.4,9.8-10.5,14.5-12.2C107.9,81.6,109.6,81.5,111.7,82.5z"/><path fill="#000000" d="M74.2,163.2c-1.2,1-1.6,1.7-1.6,3.1c0,1.6,0.6,2.3,7.2,8.9c6.2,6.2,7.4,7.2,8.7,7.2c2.2,0,3-0.4,3.8-2c1.3-2.5,0.6-3.6-6.8-11C77.8,161.6,76.8,161,74.2,163.2z"/><path fill="#000000" d="M63.4,174.5c-1.7,0.6-2.9,2.3-2.9,4c0,1.6,0.6,2.3,7.2,8.9c6.7,6.7,7.3,7.2,9,7.2c3.1,0,5-3,3.6-5.6c-0.9-1.7-13.6-14.3-14.3-14.3c-0.2,0-0.8-0.1-1.2-0.2C64.4,174.3,63.8,174.4,63.4,174.5z"/><path fill="#000000" d="M99.9,201.7c-2.7,3.5,0.8,7.8,5.1,6.2c1.2-0.5,2.3-3,1.9-4.6C106.2,200.3,101.8,199.3,99.9,201.7z"/><path fill="#000000" d="M87.5,209.9c-1.6,1.5-1.6,3.6,0,5.4c2.1,2.5,6.1,1.5,6.9-1.8C95.2,209.7,90.3,207,87.5,209.9z"/><path fill="#000000" d="M75.8,217.5c-2.5,1.5-3,4.5-1,6.5c1.5,1.6,3.6,1.6,5.4,0c1.7-1.4,1.9-4.2,0.4-5.6C79.5,217.2,77.1,216.8,75.8,217.5z"/></g></g></g>
</svg>