<?xml version="1.0" encoding="iso-8859-1"?>
<!-- Generator: Adobe Illustrator 22.1.0, SVG Export Plug-In . SVG Version: 6.00 Build 0)  -->
<svg version="1.1" id="_x35_" xmlns="http://www.w3.org/2000/svg" xmlns:xlink="http://www.w3.org/1999/xlink" x="0px" y="0px"
	 viewBox="0 0 500 512" style="enable-background:new 0 0 500 512;" xml:space="preserve">
<style type="text/css">
	.st0{fill:#5AB552;}
	.st1{fill:#F3F8EE;}
	.st2{fill:#655040;}
	.st3{fill:#CFCFCF;}
	.st4{fill:#DCA970;}
	.st5{fill:#454345;}
	.st6{fill:#CFD1E4;}
	.st7{opacity:0.9;fill:#FFFFFF;}
	.st8{opacity:0.5;fill:#040000;}
	.st9{opacity:0.3;fill:#FFFFFF;}
	.st10{opacity:0.1;fill:#040000;}
</style>
<g>
	<path class="st0" d="M208.3,288.3c-5.1-5.1-20.7-1.6-27.4-1.2c-6.7,0.4-19.9-4.2-4.3-25.4c15.6-21.2,20-26,12.8-34
		s-21.1-5.4-40.1,7.2c-19.1,12.6-28.2,37.3-35.6,51.4c-7.4,14-13,24.9-51.2,36.5C24.3,334.5,0.9,352.7,0,393.7
		c-1,43.7,58.9,121.3,102.3,118.2C144,509,149,459.2,152,444.4c2.1-10.1,7-21.9,41.5-36.3c28.3-11.8,44.3-38,46.3-48.3
		c2.4-12.2-3.9-22.5-20.4-11.7c-13.4,8.9-22.6,8.1-27.4,3.1c-4.8-4.9-7.7-14.1,10-35.7C221.4,293,208.3,288.3,208.3,288.3z"/>
	<path class="st1" d="M183.6,360.8c9.3,8.2,29,8.2,46.2-7.2c1.2-1,2.6,3.5,1.2,8.2c-3.5,12.4-17.6,29.5-42.7,39.9
		c-34.1,14.1-40.9,22.9-48,52.5c-4.6,19.1-7.8,30.4-13.8,37.6c-3.4,4.1-12.1,5.4-13.6-8.3c-1.7-16.5,6.9-38.4,0.7-60.3
		c-3-10.7-12.9-25.3-22.5-35.3c-8.4-8.7-13.4-15.4-13.1-24.2c0.3-9.3,7.3-18.5,23.8-25.2c18.2-7.5,26.4-8.6,34.5-15.6
		c8.7-7.6,14.2-18.4,18.1-25.1c3.9-6.7,7.6-7.5,9.2-0.6c1.5,6.5,5.5,25.6,8.3,37.6C174.6,346.8,174.9,353.1,183.6,360.8z"/>
	<g>
		<path class="st2" d="M407.1,109.5l-1.3,1.3l-2.9,3l-1.4,1.5l-21.8,22.1l-1.4,1.4L356.5,161l-1.4,1.4l-21.9,22.2l-1.3,1.5
			l-21.8,22.1l-1.4,1.4L287,231.7l-1.4,1.4l-21.8,22.2l-1.4,1.4l-21.8,22.2l-1.4,1.4l-44.9,45.8l-0.1,0.2l-17.8,18v0.1l-1.9,1.9
			l-1.5,1.6l-0.8,0.8l-9.4,9.5c-1-0.4-2-1-2.7-1.8l-19.3-19.2c-0.8-0.9-1.4-1.8-1.8-2.8l9.5-9.4l0.8-0.8l16.6-16.3l0.1-0.2l1.9-1.9
			l19.8-19.4l0.1-0.1l52.7-51.7l1.4-1.4l22.2-21.7l1.4-1.4l22.2-21.8l1.5-1.3l22.2-21.8l1.4-1.4l22.1-21.8l1.4-1.4l22.2-21.7
			l1.4-1.4l22.3-21.8l1.4-1.4l4.3-4.2L407.1,109.5z"/>
	</g>
	<g>
		<path class="st3" d="M113.5,423.2C113.5,423.3,113.5,423.3,113.5,423.2c6.2,22-2.4,44-0.7,60.4c1.4,13.6,10.2,12.4,13.6,8.3
			c6-7.2,9.1-18.5,13.8-37.6c2.7-10.9,5.2-19,9.2-25.6l-14.5-10.9C134.8,417.8,121.6,421.2,113.5,423.2z"/>
		<path class="st3" d="M463.4,17.5c0.4-0.2,0.5-0.6,0.2-1c-1.6-2.7-1.9-3.7-1.6-5.4c0.5-2.6,3.4-4,1.2-8.1c-1.2-2.2-4.1-2.9-6.5-1.6
			c-1.7-1.5-4.1-1.8-6-0.7c-2,1.1-2.8,3.4-2.3,5.5c-2.2,1.5-3.1,4.4-1.8,6.5c2.6,3.9,5.2,2.1,7.7,3c1.6,0.5,2.3,1.2,3.9,4
			c0.2,0.4,0.6,0.5,1,0.3c0.2-0.1,0.3-0.2,0.5-0.3c0.2-0.2,0.5-0.3,0.7-0.4l1.4,2.2c0.1,0,0.2-0.1,0.2-0.2c0.2,0,0.2-0.1,0.3-0.2
			c0.3-0.2,0.6-0.4,0.9-0.6l-1.3-2.2l0.7-0.4C463.1,17.8,463.3,17.7,463.4,17.5z"/>
		<path class="st3" d="M441.1,32l0.7-0.4c0.2-0.2,0.4-0.2,0.5-0.4c0.4-0.2,0.5-0.6,0.2-1c-1.6-2.7-1.9-3.7-1.6-5.4
			c0.5-2.6,3.4-4,1.2-8.1c-1.2-2.2-4.1-2.9-6.5-1.6c-1.7-1.5-4.1-1.8-6-0.7c-2,1.1-2.8,3.4-2.3,5.5c-2.2,1.5-3.1,4.4-1.8,6.5
			c2.6,3.9,5.2,2.1,7.7,3c1.6,0.5,2.3,1.2,3.9,4c0.2,0.4,0.6,0.5,1,0.3c0.2-0.1,0.3-0.2,0.5-0.3c0.2-0.2,0.5-0.3,0.7-0.4l1.4,2.2
			c0.1,0,0.2-0.1,0.2-0.2c0.2,0,0.2-0.1,0.3-0.2c0.3-0.2,0.6-0.4,0.9-0.6L441.1,32z"/>
		<path class="st3" d="M421.1,30.3c-1.2-2.2-4.1-2.9-6.5-1.6c-1.7-1.5-4.1-1.8-6-0.7c-2,1.1-2.8,3.4-2.3,5.5
			c-2.2,1.5-3.1,4.4-1.8,6.5c2.6,3.9,5.2,2.1,7.7,3c1.6,0.5,2.3,1.2,3.9,4c0.2,0.4,0.6,0.5,1,0.3c0.2-0.1,0.3-0.2,0.5-0.3
			c0.2-0.2,0.5-0.3,0.7-0.4l1.4,2.2c0.1,0,0.2-0.1,0.2-0.2c0.2,0,0.2-0.1,0.3-0.2c0.3-0.2,0.6-0.4,0.9-0.6l-1.3-2.2l0.7-0.4
			c0.2-0.2,0.4-0.2,0.5-0.4c0.4-0.2,0.5-0.6,0.2-1c-1.6-2.7-1.9-3.7-1.6-5.4C420.4,35.9,423.3,34.5,421.1,30.3z"/>
		<path class="st3" d="M460.5,91.5c-3.9-2.6-5.6,0-8.3,0.2c-1.7,0.1-2.6-0.3-5.1-2.2c-0.4-0.3-0.8-0.2-1.1,0.1
			c-0.1,0.1-0.2,0.3-0.4,0.5c-0.2,0.2-0.3,0.5-0.5,0.6l-2.1-1.5c-0.1,0-0.1,0.1-0.2,0.2c-0.1,0.1-0.2,0.2-0.2,0.3
			c-0.2,0.3-0.4,0.6-0.6,0.9l2.1,1.5l-0.5,0.6c-0.2,0.2-0.3,0.4-0.4,0.6c-0.3,0.3-0.2,0.8,0.2,1c2.5,1.9,3.1,2.7,3.5,4.4
			c0.5,2.6-1.6,5,1.9,8c1.9,1.6,4.9,1.1,6.6-0.9c2.2,0.7,4.4,0.1,5.8-1.6c1.4-1.8,1.3-4.2,0.1-6C462.7,96,462.5,93,460.5,91.5z"/>
		<path class="st3" d="M400,44c-1.2-2.2-4.1-2.9-6.5-1.6c-1.7-1.5-4.1-1.8-6-0.7c-2,1.1-2.8,3.4-2.3,5.5c-2.2,1.5-3.1,4.4-1.8,6.5
			c2.6,3.9,5.2,2.1,7.7,3c1.6,0.5,2.3,1.2,3.9,4c0.2,0.4,0.6,0.5,1,0.3c0.2-0.1,0.3-0.2,0.5-0.3c0.2-0.2,0.5-0.3,0.7-0.4l1.4,2.2
			c0.1,0,0.2-0.1,0.2-0.2c0.2,0,0.2-0.1,0.3-0.2c0.3-0.2,0.6-0.4,0.9-0.6l-1.3-2.2l0.7-0.4c0.2-0.2,0.4-0.2,0.5-0.4
			c0.4-0.2,0.5-0.6,0.2-1c-1.6-2.7-1.9-3.7-1.6-5.4C399.3,49.5,402.2,48.1,400,44z"/>
		<path class="st3" d="M226.1,359.6c-0.7,0.7-0.7,1.9,0,2.6c0.7,0.7,1.9,0.7,2.6,0c0.7-0.7,0.7-1.9,0-2.6
			C227.9,358.9,226.8,358.9,226.1,359.6z"/>
		<path class="st3" d="M207.1,385.4c-0.7,0.7-0.7,1.9,0,2.6c0.7,0.7,1.9,0.7,2.6,0c0.7-0.7,0.7-1.9,0-2.6
			C208.9,384.7,207.8,384.7,207.1,385.4z"/>
		<path class="st3" d="M177.4,400.2c-0.7,0.7-0.7,1.9,0,2.6c0.7,0.7,1.9,0.7,2.6,0c0.7-0.7,0.7-1.9,0-2.6
			C179.3,399.5,178.1,399.5,177.4,400.2z"/>
		<ellipse class="st3" cx="148.7" cy="423.7" rx="1.8" ry="1.8"/>
		<path class="st3" d="M114.9,417.4c-0.7,0.7-0.7,1.9,0,2.6c0.7,0.7,1.9,0.7,2.6,0c0.7-0.7,0.7-1.9,0-2.6
			C116.8,416.7,115.6,416.7,114.9,417.4z"/>
		<path class="st3" d="M86.2,374.2c-0.7-0.7-1.9-0.7-2.6,0c-0.7,0.7-0.7,1.9,0,2.6c0.7,0.7,1.9,0.7,2.6,0
			C86.9,376,86.9,374.9,86.2,374.2z"/>
		<path class="st3" d="M102.1,344.2c0.7-0.7,0.7-1.9,0-2.6c-0.7-0.7-1.9-0.7-2.6,0c-0.7,0.7-0.7,1.9,0,2.6
			C100.2,344.9,101.4,344.9,102.1,344.2z"/>
		<circle class="st3" cx="131.7" cy="330.6" r="1.8"/>
		<circle class="st3" cx="159.5" cy="297.6" r="1.8"/>
	</g>
	<path class="st4" d="M481,49.5c-4-0.1-11.3-2-11.3-2s-5.8,9.4-13.4,21.6c-8.3,13.2-17.7,26.6-20.2,29.6c-1.7,2.2-4.3,1.2-7.8,1
		c-3.4-0.2-11.2-1.2-19.9,8.4c-0.4,0.5-0.8,0.9-1.2,1.4c-2.7-2.7-9.8-9.8-9.8-9.8l-9.8-9.8l-2.2-16.6c-0.2-1.2,0.4-2.3,1.3-2.9
		c10.9-7.1,75.6-49.5,84.2-54.3c11.5-6.5,27-4.8,29,12C501.2,39.1,493.2,49.6,481,49.5z"/>
	<g>
		<path class="st5" d="M66.7,393.5c-0.9-0.9-2.2-0.9-3.1,0l-5.9,5.8c-0.9,0.9-0.9,2.2,0,3.1l36.9,36.9c0.9,0.9,2.2,0.9,3.1,0
			l5.9-5.8c0.9-0.9,0.9-2.2,0-3.1L66.7,393.5z"/>
		<path class="st5" d="M129.5,404.5c0.9,0.9,2.2,0.9,3.1,0l5.8-5.9c0.9-0.9,0.9-2.2,0-3.1l-36.9-36.9c-0.9-0.9-2.2-0.9-3.1,0
			l-5.8,5.9c-0.9,0.9-0.9,2.2,0,3.1L129.5,404.5z"/>
		<path class="st5" d="M129.5,426c-4.6,0.8-7.7,5.2-6.9,9.9c0.8,4.6,5.2,7.7,9.9,6.9c4.6-0.8,7.7-5.2,6.9-9.9
			C138.5,428.3,134.1,425.2,129.5,426z"/>
		<path class="st5" d="M125.5,447.2c-4.6,0.8-7.7,5.2-6.9,9.9c0.8,4.6,5.2,7.7,9.9,6.9c4.6-0.8,7.7-5.2,6.9-9.9
			C134.6,449.4,130.2,446.3,125.5,447.2z"/>
		<path class="st5" d="M120.6,472.4c-1.9,1.8-1.9,4.8,0,6.6c1.8,1.9,4.8,1.9,6.6,0c1.8-1.8,1.8-4.8,0-6.6
			C125.4,470.6,122.4,470.6,120.6,472.4z M126.5,478.2l-3.4,1l-2.6-2.6l1-3.4l3.4-0.9l2.5,2.5L126.5,478.2z"/>
	</g>
	<g>
		<path class="st6" d="M473.8,24.4l-0.2,0.2l0,0l-0.6,0.6c-0.1-0.1-0.2-0.2-0.3-0.4c-0.1-0.1-0.2-0.2-0.4-0.3l0.6-0.6l0,0l0,0
			l0.2-0.2c-1-0.8-2.3-1-3.4-0.6c0,0-0.1,0-0.1,0c-0.1,0-0.1,0-0.2,0c-0.2,0-0.5,0.1-0.7,0c-0.6-0.1-1.1,0-1.7,0.1
			c-0.2,0-0.5,0.1-0.7,0.1c-1,0.3-2,0.7-2.8,1.5c-2.5,2.5-2.5,6.6,0,9c2.5,2.5,6.6,2.5,9,0c0.8-0.8,1.2-1.8,1.5-2.8
			c0.1-0.2,0.1-0.5,0.1-0.7c0.1-0.6,0.1-1.1,0.1-1.7c0-0.2,0.1-0.5,0-0.7c0-0.1,0-0.1,0-0.2c0,0,0,0,0-0.1
			C474.8,26.7,474.6,25.4,473.8,24.4z"/>
		<path class="st6" d="M453.1,39.3L453.1,39.3l-0.6,0.6c-0.1-0.1-0.2-0.2-0.3-0.4c-0.1-0.1-0.2-0.2-0.4-0.3l0.6-0.6l0,0l0,0l0.2-0.2
			c-1-0.8-2.3-1-3.4-0.6c0,0-0.1,0-0.1,0c-0.1,0-0.1,0-0.2,0c-0.2,0-0.5,0.1-0.7,0c-0.6-0.1-1.1,0-1.7,0.1c-0.2,0-0.5,0.1-0.7,0.1
			c-1,0.3-2,0.7-2.8,1.5c-2.5,2.5-2.5,6.6,0,9c2.5,2.5,6.6,2.5,9,0c0.8-0.8,1.2-1.8,1.5-2.8c0.1-0.2,0.1-0.5,0.1-0.7
			c0.1-0.6,0.1-1.1,0.1-1.7c0-0.2,0.1-0.5,0-0.7c0-0.1,0-0.1,0-0.2c0,0,0,0,0-0.1c0.3-1.1,0.1-2.4-0.6-3.4L453.1,39.3z"/>
		<path class="st6" d="M433,60.6c0.1-0.2,0.1-0.5,0.1-0.7c0.1-0.6,0.1-1.1,0.1-1.7c0-0.2,0.1-0.5,0-0.7c0-0.1,0-0.1,0-0.2
			c0,0,0,0,0-0.1c0.3-1.1,0.1-2.4-0.6-3.4l-0.2,0.2l0,0l-0.6,0.6c-0.1-0.1-0.2-0.2-0.3-0.4c-0.1-0.1-0.2-0.2-0.4-0.3l0.6-0.6l0,0
			l0,0l0.2-0.2c-1-0.8-2.3-1-3.4-0.6c0,0-0.1,0-0.1,0c-0.1,0-0.1,0-0.2,0c-0.2,0-0.5,0.1-0.7,0c-0.6-0.1-1.1,0-1.7,0.1
			c-0.2,0-0.5,0.1-0.7,0.1c-1,0.3-2,0.7-2.8,1.5c-2.5,2.5-2.5,6.6,0,9c2.5,2.5,6.6,2.5,9,0C432.3,62.6,432.7,61.6,433,60.6z"/>
		<path class="st6" d="M412,68.7L412,68.7l-0.6,0.6c-0.1-0.1-0.2-0.2-0.3-0.4c-0.1-0.1-0.2-0.2-0.4-0.3l0.6-0.6l0,0l0,0l0.2-0.2
			c-1-0.8-2.3-1-3.3-0.6c0,0-0.1,0-0.1,0c-0.1,0-0.1,0-0.2,0c-0.2,0-0.5,0.1-0.7,0c-0.6-0.1-1.1,0-1.7,0.1c-0.2,0-0.5,0.1-0.7,0.1
			c-1,0.3-2,0.7-2.8,1.5c-2.5,2.5-2.5,6.6,0,9c2.5,2.5,6.5,2.5,9,0c0.8-0.8,1.2-1.8,1.5-2.8c0.1-0.2,0.1-0.5,0.1-0.7
			c0.1-0.6,0.1-1.1,0.1-1.7c0-0.2,0.1-0.5,0-0.7c0-0.1,0-0.1,0.1-0.2c0,0,0,0,0-0.1c0.3-1.1,0.1-2.4-0.6-3.4L412,68.7z"/>
		<path class="st6" d="M439.5,79.2L439.5,79.2l-0.6,0.6c-0.1-0.1-0.2-0.2-0.3-0.4c-0.1-0.1-0.2-0.2-0.4-0.3l0.6-0.6l0,0l0,0l0.2-0.2
			c-1-0.8-2.3-1-3.4-0.6c0,0-0.1,0-0.1,0c-0.1,0-0.1,0-0.2,0c-0.2,0-0.5,0.1-0.7,0c-0.6-0.1-1.1,0-1.7,0.1c-0.2,0-0.5,0.1-0.7,0.1
			c-1,0.3-2,0.7-2.8,1.5c-2.5,2.5-2.5,6.6,0,9c2.5,2.5,6.6,2.5,9,0c0.8-0.8,1.2-1.8,1.5-2.8c0.1-0.2,0.1-0.5,0.1-0.7
			c0.1-0.6,0.1-1.1,0.1-1.7c0-0.2,0.1-0.5,0-0.7c0-0.1,0-0.1,0-0.2c0,0,0,0,0-0.1c0.3-1.1,0.1-2.4-0.6-3.4L439.5,79.2z"/>
	</g>
	<g>
		<path class="st7" d="M47.5,424c-0.5-0.5-1.3-0.5-1.8,0l-13.1,13.1c-0.5,0.5-0.5,1.3,0,1.8l26.3,26.3c0.5,0.5,1.3,0.5,1.8,0
			L73.8,452c0.5-0.5,0.5-1.3,0-1.8L47.5,424z"/>
		<circle class="st7" cx="118" cy="426.3" r="1.8"/>
		<path class="st7" d="M119.1,489.3c-0.7,0.7-0.7,1.9,0,2.6s1.9,0.7,2.6,0c0.7-0.7,0.7-1.9,0-2.6
			C120.9,488.6,119.8,488.6,119.1,489.3z"/>
		<path class="st7" d="M146.4,428.9c-0.7-0.7-1.9-0.7-2.6,0c-0.7,0.7-0.7,1.9,0,2.6c0.7,0.7,1.9,0.7,2.6,0
			C147.1,430.8,147.1,429.6,146.4,428.9z"/>
		<path class="st7" d="M131.7,433.9c-0.2,0-0.3,0.2-0.2,0.4c0,0.2,0.2,0.3,0.4,0.2l3.1-0.6c0.2,0,0.3-0.2,0.2-0.4
			c0-0.2-0.2-0.3-0.4-0.2L131.7,433.9z"/>
		<path class="st7" d="M137.7,433.2c0.1,0.3,0.4,0.5,0.7,0.5c0.3-0.1,0.5-0.4,0.5-0.7c-0.1-0.3-0.4-0.5-0.7-0.5
			C137.9,432.6,137.6,432.9,137.7,433.2z"/>
		<path class="st7" d="M127.7,455.1c-0.2,0-0.3,0.2-0.2,0.4c0,0.2,0.2,0.3,0.4,0.2l3.1-0.6c0.2,0,0.3-0.2,0.2-0.4
			c0-0.2-0.2-0.3-0.4-0.2L127.7,455.1z"/>
		<path class="st7" d="M133.7,454.3c0.1,0.3,0.4,0.5,0.7,0.5c0.3-0.1,0.5-0.4,0.5-0.7c-0.1-0.3-0.4-0.5-0.7-0.5
			C133.9,453.7,133.7,454,133.7,454.3z"/>
		<path class="st7" d="M66.3,403.8c0.5,0.5,1.3,0.5,1.8,0c0.5-0.5,0.5-1.3,0-1.8c-0.5-0.5-1.3-0.5-1.8,0
			C65.8,402.5,65.8,403.3,66.3,403.8z"/>
		<path class="st7" d="M65.6,401.3c0.5-0.5,0.5-1.3,0-1.8c-0.5-0.5-1.3-0.5-1.8,0c-0.5,0.5-0.5,1.3,0,1.8
			C64.3,401.8,65.1,401.8,65.6,401.3z"/>
		<path class="st7" d="M73.7,409.4c-0.5,0.5-0.5,1.3,0,1.8c0.5,0.5,1.3,0.5,1.8,0c0.5-0.5,0.5-1.3,0-1.8
			C75,408.9,74.2,408.9,73.7,409.4z"/>
		<path class="st7" d="M73,408.7c0.5-0.5,0.5-1.3,0-1.8c-0.5-0.5-1.3-0.5-1.8,0c-0.5,0.5-0.5,1.3,0,1.8
			C71.7,409.2,72.5,409.2,73,408.7z"/>
		<path class="st7" d="M81.1,416.7c-0.5,0.5-0.5,1.3,0,1.8c0.5,0.5,1.3,0.5,1.8,0c0.5-0.5,0.5-1.3,0-1.8
			C82.4,416.2,81.6,416.2,81.1,416.7z"/>
		<path class="st7" d="M80.4,414.2c-0.5-0.5-1.3-0.5-1.8,0c-0.5,0.5-0.5,1.3,0,1.8s1.3,0.5,1.8,0C80.9,415.5,80.9,414.7,80.4,414.2z
			"/>
		<path class="st7" d="M88.4,424.1c-0.5,0.5-0.5,1.3,0,1.8c0.5,0.5,1.3,0.5,1.8,0c0.5-0.5,0.5-1.3,0-1.8
			C89.8,423.6,88.9,423.6,88.4,424.1z"/>
		<path class="st7" d="M87.7,421.6c-0.5-0.5-1.3-0.5-1.8,0c-0.5,0.5-0.5,1.3,0,1.8c0.5,0.5,1.3,0.5,1.8,0
			C88.3,422.9,88.3,422.1,87.7,421.6z"/>
		<path class="st7" d="M95.8,431.5c-0.5,0.5-0.5,1.3,0,1.8c0.5,0.5,1.3,0.5,1.8,0c0.5-0.5,0.5-1.3,0-1.8
			C97.1,431,96.3,431,95.8,431.5z"/>
		<path class="st7" d="M95.1,429c-0.5-0.5-1.3-0.5-1.8,0c-0.5,0.5-0.5,1.3,0,1.8c0.5,0.5,1.3,0.5,1.8,0
			C95.6,430.3,95.6,429.5,95.1,429z"/>
		<path class="st7" d="M101.1,367.2c-0.5,0.5-0.5,1.3,0,1.8c0.5,0.5,1.3,0.5,1.8,0c0.5-0.5,0.5-1.3,0-1.8
			C102.4,366.7,101.6,366.7,101.1,367.2z"/>
		<path class="st7" d="M100.4,364.7c-0.5-0.5-1.3-0.5-1.8,0c-0.5,0.5-0.5,1.3,0,1.8c0.5,0.5,1.3,0.5,1.8,0
			C100.9,366,100.9,365.2,100.4,364.7z"/>
		<path class="st7" d="M108.5,374.5c-0.5,0.5-0.5,1.3,0,1.8c0.5,0.5,1.3,0.5,1.8,0c0.5-0.5,0.5-1.3,0-1.8
			C109.8,374,109,374,108.5,374.5z"/>
		<path class="st7" d="M107.8,372c-0.5-0.5-1.3-0.5-1.8,0c-0.5,0.5-0.5,1.3,0,1.8c0.5,0.5,1.3,0.5,1.8,0
			C108.3,373.4,108.3,372.5,107.8,372z"/>
		<path class="st7" d="M117.7,383.8c0.5-0.5,0.5-1.3,0-1.8c-0.5-0.5-1.3-0.5-1.8,0c-0.5,0.5-0.5,1.3,0,1.8
			C116.4,384.3,117.2,384.3,117.7,383.8z"/>
		<path class="st7" d="M115.2,379.4c-0.5-0.5-1.3-0.5-1.8,0c-0.5,0.5-0.5,1.3,0,1.8c0.5,0.5,1.3,0.5,1.8,0
			C115.7,380.7,115.7,379.9,115.2,379.4z"/>
		<path class="st7" d="M123.3,389.3c-0.5,0.5-0.5,1.3,0,1.8c0.5,0.5,1.3,0.5,1.8,0c0.5-0.5,0.5-1.3,0-1.8
			C124.6,388.8,123.8,388.8,123.3,389.3z"/>
		<path class="st7" d="M122.6,386.8c-0.5-0.5-1.3-0.5-1.8,0c-0.5,0.5-0.5,1.3,0,1.8c0.5,0.5,1.3,0.5,1.8,0
			C123.1,388.1,123.1,387.3,122.6,386.8z"/>
		<path class="st7" d="M130.6,398.5c0.5,0.5,1.3,0.5,1.8,0c0.5-0.5,0.5-1.3,0-1.8c-0.5-0.5-1.3-0.5-1.8,0
			C130.1,397.2,130.1,398,130.6,398.5z"/>
		<path class="st7" d="M129.9,396c0.5-0.5,0.5-1.3,0-1.8c-0.5-0.5-1.3-0.5-1.8,0c-0.5,0.5-0.5,1.3,0,1.8
			C128.6,396.5,129.4,396.5,129.9,396z"/>
	</g>
	<g>
		<path class="st8" d="M96.2,437.8l-36.9-36.9c-0.9-0.9-0.9-2.2,0-3.1l-1.5,1.5c-0.9,0.9-0.9,2.2,0,3.1l36.9,36.9
			c0.9,0.9,2.2,0.9,3.1,0l1.5-1.5C98.5,438.6,97.1,438.6,96.2,437.8z"/>
		<path class="st8" d="M129.5,404.5c0.9,0.9,2.2,0.9,3.1,0l1.5-1.5c-0.9,0.9-2.2,0.9-3.1,0l-36.9-36.9c-0.9-0.9-0.9-2.2,0-3.1
			l-1.5,1.5c-0.9,0.9-0.9,2.2,0,3.1L129.5,404.5z"/>
		<path class="st8" d="M134.7,429.5c-0.3-0.8-1.2-1.2-2-1.1c-0.8,0.2-2.4,0.1-3.3-0.2c-0.8-0.2-1.7,0.2-2.1,0.9
			c-0.4,0.8-1.4,2-2.2,2.4c-0.5,0.5-0.9,1.2-0.7,1.9c0,0.2,0.1,0.2,0.2,0.4c0.2,0.4,0.3,0.9,0.4,1.6c0.1,0.6,0.2,1.3,0.2,1.6v0.5
			c0.2,0.7,0.6,1.2,1.3,1.4c0.9,0.2,2.3,1,2.9,1.6c0.6,0.5,1.6,0.6,2.3,0.2c0.8-0.5,2.3-1.2,3-1.3c0.9-0.2,1.5-0.9,1.6-1.7
			c0-0.9,0.5-2.4,0.9-3.2c0.2-0.3,0.3-0.8,0.2-1.2c-0.1-0.4-0.3-0.8-0.6-1C136,431.6,135.1,430.3,134.7,429.5z M135.2,437.6
			c-0.1,0.4-0.3,0.6-0.7,0.7c-1,0.2-2.6,0.9-3.4,1.5c-0.3,0.2-0.8,0.2-1-0.1c-0.8-0.6-2.3-1.5-3.3-1.7c-0.4-0.2-0.6-0.5-0.6-0.9
			c0.1-1-0.2-2.7-0.6-3.7c-0.2-0.4-0.1-0.8,0.2-1c0.9-0.6,2-1.9,2.5-2.8c0.2-0.3,0.5-0.5,0.9-0.4c1,0.2,2.7,0.3,3.8,0.2
			c0.4-0.1,0.7,0.2,0.9,0.5c0.5,0.9,1.5,2.4,2.2,3c0.3,0.3,0.4,0.7,0.2,1C135.7,434.9,135.3,436.5,135.2,437.6z"/>
		<path class="st8" d="M130.7,450.6c-0.3-0.8-1.2-1.2-2-1.1c-0.8,0.2-2.4,0.1-3.3-0.2c-0.8-0.2-1.7,0.2-2.1,0.9
			c-0.4,0.8-1.4,2-2.2,2.4c-0.5,0.5-0.9,1.2-0.7,1.9c0,0.2,0.1,0.2,0.2,0.4c0.2,0.4,0.3,0.9,0.4,1.6c0.1,0.6,0.2,1.3,0.2,1.6v0.5
			c0.2,0.7,0.6,1.2,1.3,1.4c0.9,0.2,2.3,1,2.9,1.6c0.6,0.5,1.6,0.6,2.3,0.2c0.8-0.5,2.3-1.2,3-1.3c0.9-0.2,1.5-0.9,1.6-1.7
			c0-0.9,0.5-2.4,0.9-3.2c0.2-0.3,0.3-0.8,0.2-1.2c-0.1-0.4-0.3-0.8-0.6-1C132.1,452.8,131.1,451.4,130.7,450.6z M131.2,458.8
			c-0.1,0.4-0.3,0.6-0.7,0.7c-1,0.2-2.6,0.9-3.4,1.5c-0.3,0.2-0.8,0.2-1-0.1c-0.8-0.6-2.3-1.5-3.3-1.7c-0.4-0.2-0.6-0.5-0.6-0.9
			c0.1-1-0.2-2.7-0.6-3.7c-0.2-0.4-0.1-0.8,0.2-1c0.9-0.6,2-1.9,2.5-2.8c0.2-0.3,0.5-0.5,0.9-0.4c1,0.2,2.7,0.3,3.8,0.2
			c0.4-0.1,0.7,0.2,0.9,0.5c0.5,0.9,1.5,2.4,2.2,3c0.3,0.3,0.4,0.7,0.2,1C131.8,456,131.3,457.7,131.2,458.8z"/>
		<path class="st8" d="M122.6,474.3c-0.8,0.8-0.8,2,0,2.7c0.7,0.8,1.9,0.8,2.7,0c0.7-0.7,0.7-1.9,0-2.7
			C124.5,473.6,123.3,473.6,122.6,474.3z"/>
		<path class="st8" d="M228.3,360.7h-0.5c-0.1,0-0.1,0-0.1-0.1V360c0-0.1,0-0.1-0.1-0.1h-0.3c-0.1,0-0.1,0-0.1,0.1v0.5
			c0,0.1,0,0.1-0.1,0.1h-0.5c-0.1,0-0.1,0-0.1,0.1v0.3c0,0.1,0,0.1,0.1,0.1h0.5c0.1,0,0.1,0,0.1,0.1v0.5c0,0.1,0,0.1,0.1,0.1h0.3
			c0.1,0,0.1,0,0.1-0.1v-0.5c0-0.1,0-0.1,0.1-0.1h0.5c0.1,0,0.1,0,0.1-0.1v-0.3C228.4,360.7,228.3,360.7,228.3,360.7z"/>
		<path class="st8" d="M208.7,386.4c-0.1,0-0.1,0-0.1-0.1v-0.5c0-0.1,0-0.1-0.1-0.1h-0.3c-0.1,0-0.1,0-0.1,0.1v0.5
			c0,0.1,0,0.1-0.1,0.1h-0.5c-0.1,0-0.1,0-0.1,0.1v0.3c0,0.1,0,0.1,0.1,0.1h0.5c0.1,0,0.1,0,0.1,0.1v0.5c0,0.1,0,0.1,0.1,0.1h0.3
			c0.1,0,0.1,0,0.1-0.1v-0.5c0-0.1,0-0.1,0.1-0.1h0.5c0.1,0,0.1,0,0.1-0.1v-0.3c0-0.1,0-0.1-0.1-0.1H208.7z"/>
		<path class="st8" d="M179.1,401.2c-0.1,0-0.1,0-0.1-0.1v-0.5c0-0.1,0-0.1-0.1-0.1h-0.3c-0.1,0-0.1,0-0.1,0.1v0.5
			c0,0.1,0,0.1-0.1,0.1h-0.5c-0.1,0-0.1,0-0.1,0.1v0.3c0,0.1,0,0.1,0.1,0.1h0.5c0.1,0,0.1,0,0.1,0.1v0.5c0,0.1,0,0.1,0.1,0.1h0.3
			c0.1,0,0.1,0,0.1-0.1v-0.5c0-0.1,0-0.1,0.1-0.1h0.5c0.1,0,0.1,0,0.1-0.1v-0.3c0-0.1,0-0.1-0.1-0.1H179.1z"/>
		<path class="st8" d="M149.1,423.4c-0.1,0-0.1,0-0.1-0.1v-0.5c0-0.1,0-0.1-0.1-0.1h-0.3c-0.1,0-0.1,0-0.1,0.1v0.5
			c0,0.1,0,0.1-0.1,0.1h-0.5c-0.1,0-0.1,0-0.1,0.1v0.3c0,0.1,0,0.1,0.1,0.1h0.5c0.1,0,0.1,0,0.1,0.1v0.5c0,0.1,0,0.1,0.1,0.1h0.3
			c0.1,0,0.1,0,0.1-0.1v-0.5c0-0.1,0-0.1,0.1-0.1h0.5c0.1,0,0.1,0,0.1-0.1v-0.3c0-0.1,0-0.1-0.1-0.1H149.1z"/>
		<path class="st8" d="M117.2,418.8v-0.3c0-0.1,0-0.1-0.1-0.1h-0.5c-0.1,0-0.1,0-0.1-0.1v-0.5c0-0.1,0-0.1-0.1-0.1H116
			c-0.1,0-0.1,0-0.1,0.1v0.5c0,0.1,0,0.1-0.1,0.1h-0.5c-0.1,0-0.1,0-0.1,0.1v0.3c0,0.1,0,0.1,0.1,0.1h0.5c0.1,0,0.1,0,0.1,0.1v0.5
			c0,0.1,0,0.1,0.1,0.1h0.3c0.1,0,0.1,0,0.1-0.1v-0.5c0-0.1,0-0.1,0.1-0.1h0.5C117.2,419,117.2,418.9,117.2,418.8z"/>
		<path class="st8" d="M118.4,426.1c-0.1,0-0.1,0-0.1-0.1v-0.5c0-0.1,0-0.1-0.1-0.1h-0.3c-0.1,0-0.1,0-0.1,0.1v0.5
			c0,0.1,0,0.1-0.1,0.1h-0.5c-0.1,0-0.1,0-0.1,0.1v0.3c0,0.1,0,0.1,0.1,0.1h0.5c0.1,0,0.1,0,0.1,0.1v0.5c0,0.1,0,0.1,0.1,0.1h0.3
			c0.1,0,0.1,0,0.1-0.1v-0.5c0-0.1,0-0.1,0.1-0.1h0.5c0.1,0,0.1,0,0.1-0.1v-0.3c0-0.1,0-0.1-0.1-0.1H118.4z"/>
		<path class="st8" d="M120.7,490.3c-0.1,0-0.1,0-0.1-0.1v-0.5c0-0.1,0-0.1-0.1-0.1h-0.3c-0.1,0-0.1,0-0.1,0.1v0.5
			c0,0.1,0,0.1-0.1,0.1h-0.5c-0.1,0-0.1,0-0.1,0.1v0.3c0,0.1,0,0.1,0.1,0.1h0.5c0.1,0,0.1,0,0.1,0.1v0.5c0,0.1,0,0.1,0.1,0.1h0.3
			c0.1,0,0.1,0,0.1-0.1V491c0-0.1,0-0.1,0.1-0.1h0.5c0.1,0,0.1,0,0.1-0.1v-0.3c0-0.1,0-0.1-0.1-0.1H120.7z"/>
		<path class="st8" d="M145.5,429.9c-0.1,0-0.1,0-0.1-0.1v-0.5c0-0.1,0-0.1-0.1-0.1h-0.3c-0.1,0-0.1,0-0.1,0.1v0.5
			c0,0.1,0,0.1-0.1,0.1h-0.5c-0.1,0-0.1,0-0.1,0.1v0.3c0,0.1,0,0.1,0.1,0.1h0.5c0.1,0,0.1,0,0.1,0.1v0.5c0,0.1,0,0.1,0.1,0.1h0.3
			c0.1,0,0.1,0,0.1-0.1v-0.5c0-0.1,0-0.1,0.1-0.1h0.5c0.1,0,0.1,0,0.1-0.1V430c0-0.1,0-0.1-0.1-0.1H145.5z"/>
		<path class="st8" d="M84.5,375.7c0.1,0,0.1,0,0.1,0.1v0.5c0,0.1,0,0.1,0.1,0.1h0.3c0.1,0,0.1,0,0.1-0.1v-0.5c0-0.1,0-0.1,0.1-0.1
			h0.5c0.1,0,0.1,0,0.1-0.1v-0.3c0-0.1,0-0.1-0.1-0.1h-0.5c-0.1,0-0.1,0-0.1-0.1v-0.5c0-0.1,0-0.1-0.1-0.1h-0.3
			c-0.1,0-0.1,0-0.1,0.1v0.5c0,0.1,0,0.1-0.1,0.1H84c-0.1,0-0.1,0-0.1,0.1v0.3c0,0.1,0,0.1,0.1,0.1H84.5z"/>
		<path class="st8" d="M100.4,343.2c0.1,0,0.1,0,0.1,0.1v0.5c0,0.1,0,0.1,0.1,0.1h0.3c0.1,0,0.1,0,0.1-0.1v-0.5c0-0.1,0-0.1,0.1-0.1
			h0.5c0.1,0,0.1,0,0.1-0.1v-0.3c0-0.1,0-0.1-0.1-0.1h-0.5c-0.1,0-0.1,0-0.1-0.1V342c0-0.1,0-0.1-0.1-0.1h-0.3c-0.1,0-0.1,0-0.1,0.1
			v0.5c0,0.1,0,0.1-0.1,0.1h-0.5c-0.1,0-0.1,0-0.1,0.1v0.3c0,0.1,0,0.1,0.1,0.1H100.4z"/>
		<path class="st8" d="M131.3,330.9c0.1,0,0.1,0,0.1,0.1v0.5c0,0.1,0,0.1,0.1,0.1h0.3c0.1,0,0.1,0,0.1-0.1V331c0-0.1,0-0.1,0.1-0.1
			h0.5c0.1,0,0.1,0,0.1-0.1v-0.3c0-0.1,0-0.1-0.1-0.1H132c-0.1,0-0.1,0-0.1-0.1v-0.5c0-0.1,0-0.1-0.1-0.1h-0.3c-0.1,0-0.1,0-0.1,0.1
			v0.5c0,0.1,0,0.1-0.1,0.1h-0.5c-0.1,0-0.1,0-0.1,0.1v0.3c0,0.1,0,0.1,0.1,0.1H131.3z"/>
		<path class="st8" d="M159.9,297.4c-0.1,0-0.1,0-0.1-0.1v-0.5c0-0.1,0-0.1-0.1-0.1h-0.3c-0.1,0-0.1,0-0.1,0.1v0.5
			c0,0.1,0,0.1-0.1,0.1h-0.5c-0.1,0-0.1,0-0.1,0.1v0.3c0,0.1,0,0.1,0.1,0.1h0.5c0.1,0,0.1,0,0.1,0.1v0.5c0,0.1,0,0.1,0.1,0.1h0.3
			c0.1,0,0.1,0,0.1-0.1V298c0-0.1,0-0.1,0.1-0.1h0.5c0.1,0,0.1,0,0.1-0.1v-0.3c0-0.1,0-0.1-0.1-0.1H159.9z"/>
	</g>
	<g>
		<g>
			<path class="st9" d="M190.5,229c-0.3-0.4-0.7-0.8-1.1-1.3c-7.2-8-21.1-5.4-40.1,7.2c-19.1,12.6-28.2,37.3-35.6,51.3
				c-7.4,14-13,24.9-51.2,36.5C24.3,334.5,0.9,352.7,0,393.7c-0.6,26.3,20.8,64.7,47.3,90.6c-25.1-25.8-44.7-62.2-44.2-87.4
				c0.9-41,24.3-59.2,62.6-70.8c38.2-11.6,43.9-22.5,51.2-36.5c7.4-14,16.5-38.7,35.6-51.3C169.9,226.7,182.9,223.5,190.5,229z"/>
			<polygon class="st9" points="381.9,95.6 401.4,115.2 402.9,113.8 383.3,94.2 			"/>
			<polygon class="st9" points="358.2,118.8 378.2,138.8 379.6,137.4 359.6,117.4 			"/>
			<polygon class="st9" points="334.6,142 355.1,162.4 356.5,161 336,140.6 			"/>
			<polygon class="st9" points="311.1,165.2 331.9,186 333.2,184.5 312.5,163.8 			"/>
			<polygon class="st9" points="287.5,188.3 308.7,209.6 310.1,208.1 288.9,187 			"/>
			
				<rect x="274.4" y="206.3" transform="matrix(0.7059 -0.7083 0.7083 0.7059 -75.9743 260.2817)" class="st9" width="2" height="30.7"/>
			
				<rect x="251" y="229.3" transform="matrix(0.7072 -0.707 0.707 0.7072 -99.4147 249.9284)" class="st9" width="2" height="31.3"/>
			
				<rect x="227.7" y="252.6" transform="matrix(0.7071 -0.7071 0.7071 0.7071 -122.8236 240.3413)" class="st9" width="2" height="31.7"/>
			
				<rect x="209" y="271.3" transform="matrix(0.7072 -0.707 0.707 0.7072 -141.5122 232.5524)" class="st9" width="2" height="31.7"/>
			
				<rect x="192.4" y="287.9" transform="matrix(0.7072 -0.707 0.707 0.7072 -158.1052 225.6785)" class="st9" width="2" height="31.7"/>
			
				<rect x="175.8" y="304.5" transform="matrix(0.7072 -0.707 0.707 0.7072 -174.6982 218.8047)" class="st9" width="2" height="31.7"/>
			
				<rect x="184.1" y="296.2" transform="matrix(0.7072 -0.707 0.707 0.7072 -166.4017 222.2416)" class="st9" width="2" height="31.7"/>
			
				<rect x="159.2" y="321.1" transform="matrix(0.7072 -0.707 0.707 0.7072 -191.2916 211.9316)" class="st9" width="2" height="31.7"/>
			<path class="st9" d="M331.9,161.2c-1.3,1.3-1.3,3.3,0,4.5c1.3,1.3,3.3,1.3,4.5,0c1.3-1.3,1.3-3.3,0-4.5
				C335.2,160,333.2,160,331.9,161.2z"/>
			<path class="st9" d="M284.3,208.8c-1.3,1.3-1.3,3.3,0,4.5c1.3,1.3,3.3,1.3,4.5,0c1.3-1.3,1.3-3.3,0-4.5
				C287.6,207.6,285.6,207.6,284.3,208.8z"/>
			<path class="st9" d="M236.7,256.4c-1.3,1.3-1.3,3.3,0,4.5c1.3,1.3,3.3,1.3,4.5,0c1.3-1.3,1.3-3.3,0-4.5S238,255.2,236.7,256.4z"
				/>
			<path class="st9" d="M203.7,298.5c1.3-1.3,1.3-3.3,0-4.5c-1.3-1.3-3.3-1.3-4.5,0c-1.3,1.3-1.3,3.3,0,4.5
				C200.4,299.8,202.5,299.8,203.7,298.5z"/>
			<path class="st9" d="M161.5,326.1c1.3,1.3,3.3,1.3,4.5,0c1.3-1.3,1.3-3.3,0-4.5c-1.3-1.3-3.3-1.3-4.5,0
				C160.2,322.8,160.2,324.9,161.5,326.1z"/>
			<path class="st9" d="M171,331.1c-1.3,1.3-1.3,3.3,0,4.5c1.3,1.3,3.3,1.3,4.5,0c1.3-1.3,1.3-3.3,0-4.5
				C174.3,329.8,172.2,329.8,171,331.1z"/>
			<path class="st9" d="M471.5,24.1c-0.6-0.6-1.7-0.6-2.3,0c-0.6,0.6-0.6,1.7,0,2.3c0.6,0.6,1.7,0.6,2.3,0
				C472.1,25.7,472.1,24.7,471.5,24.1z"/>
			<path class="st9" d="M448.6,38.8c-0.6,0.6-0.6,1.7,0,2.3c0.6,0.6,1.7,0.6,2.3,0c0.6-0.6,0.6-1.7,0-2.3
				C450.3,38.1,449.2,38.1,448.6,38.8z"/>
			<circle class="st9" cx="429.2" cy="54.6" r="1.6"/>
			<path class="st9" d="M407.5,68.2c-0.6,0.6-0.6,1.7,0,2.3c0.6,0.6,1.7,0.6,2.3,0c0.6-0.6,0.6-1.7,0-2.3
				C409.1,67.5,408.1,67.5,407.5,68.2z"/>
			<path class="st9" d="M435,78.6c-0.6,0.6-0.6,1.7,0,2.3c0.6,0.6,1.7,0.6,2.3,0c0.6-0.6,0.6-1.7,0-2.3C436.7,78,435.6,78,435,78.6z
				"/>
			<path class="st9" d="M450.9,0.7c-1.9,1.1-2.8,3.4-2.3,5.6c-2.3,1.5-3.2,4.4-1.8,6.5c1.4,2.2,2.9,2.5,4.3,2.6
				c-1.1-0.2-2.2-0.8-3.3-2.5c-1.4-2.1-0.5-5,1.8-6.5c-0.5-2.2,0.4-4.4,2.3-5.6c0.8-0.5,1.7-0.7,2.5-0.6C453.2-0.1,452,0,450.9,0.7z
				"/>
			<path class="st9" d="M429.8,14.3c-1.9,1.1-2.8,3.4-2.3,5.6c-2.3,1.5-3.2,4.4-1.8,6.5c1.4,2.2,2.9,2.5,4.3,2.6
				c-1.1-0.2-2.2-0.8-3.3-2.5c-1.4-2.1-0.5-5,1.8-6.5c-0.5-2.2,0.4-4.4,2.3-5.6c0.8-0.5,1.7-0.7,2.5-0.6
				C432.1,13.5,430.9,13.7,429.8,14.3z"/>
			<path class="st9" d="M408.7,28c-1.9,1.1-2.8,3.4-2.3,5.6c-2.3,1.5-3.2,4.4-1.8,6.5c1.4,2.2,2.9,2.5,4.3,2.6
				c-1.1-0.2-2.2-0.8-3.3-2.5c-1.4-2.1-0.5-5,1.8-6.5c-0.5-2.2,0.4-4.4,2.3-5.6c0.8-0.5,1.7-0.7,2.5-0.6
				C411,27.2,409.8,27.4,408.7,28z"/>
			<path class="st9" d="M460.4,91.5c-2.1-1.5-3.6-1.3-5-0.8c1.1-0.2,2.4-0.1,4,1c2.1,1.4,2.3,4.5,0.8,6.7c1.3,1.8,1.3,4.3,0,6
				c-0.6,0.7-1.3,1.3-2.1,1.6c1.2-0.2,2.3-0.8,3.1-1.8c1.3-1.8,1.3-4.2,0-6C462.8,96,462.5,93,460.4,91.5z"/>
			<path class="st9" d="M387.8,56.3c-1.1-0.2-2.2-0.8-3.3-2.5c-1.4-2.1-0.5-5,1.8-6.5c-0.5-2.2,0.4-4.4,2.3-5.6
				c0.8-0.5,1.7-0.7,2.5-0.6c-1.2-0.3-2.4-0.1-3.5,0.5c-1.9,1.1-2.8,3.4-2.3,5.6c-2.3,1.5-3.2,4.4-1.8,6.5
				C384.8,55.9,386.3,56.3,387.8,56.3z"/>
		</g>
		
			<rect x="-16.2" y="267.3" transform="matrix(0.706 -0.7082 0.7082 0.706 -117.4931 252.2357)" class="st9" width="522.6" height="0.6"/>
		
			<rect x="-29.9" y="239.7" transform="matrix(0.7068 -0.7074 0.7074 0.7068 -91.923 258.1035)" class="st9" width="590.5" height="0.6"/>
		
			<rect x="-29.9" y="244.7" transform="matrix(0.7075 -0.7068 0.7068 0.7075 -99.1362 250.4729)" class="st9" width="565.8" height="0.6"/>
		
			<rect x="-33.2" y="242" transform="matrix(0.7082 -0.706 0.706 0.7082 -98.6095 246.0428)" class="st9" width="563" height="0.6"/>
		
			<rect x="-33.1" y="247.3" transform="matrix(0.7088 -0.7054 0.7054 0.7088 -106.0503 238.3528)" class="st9" width="537.6" height="0.6"/>
	</g>
	<g>
		<path class="st10" d="M228.3,351.8c-15.9,14.3-34.5,14.8-43.1,7.2c-0.6-0.5-1.2-1.1-1.7-1.6c-4.1-4.1-5.8-8-7.1-13.1l-1.9,1.9v0.1
			c1.6,5.4,3.8,9.6,9.1,14.5c9.3,8.2,29,8.2,46.2-7.2c1.2-1,2.6,3.5,1.3,8.2c-3.6,12.3-17.7,29.5-42.7,39.8
			c-21.6,8.9-32.2,15.7-38.9,27c-3.9,6.6-6.5,14.7-9.1,25.6c-4.7,19.1-7.8,30.4-13.8,37.6c-3.4,4.1-12.1,5.4-13.5-8.3
			c-1.7-16.4,6.9-38.4,0.7-60.3V423c-3.1-10.7-13-25.2-22.6-35.2c-8.4-8.8-13.4-15.5-13.1-24.2c0.3-9.3,7.3-18.4,23.8-25.2
			c18.2-7.5,26.4-8.6,34.5-15.7c8.7-7.7,14.1-18.4,18-25.1c3.8-6.7,7.6-7.5,9.2-0.6c0.5,2.3,1.3,6,2.3,10.5l1.9-1.9
			c-0.9-3.9-1.6-7.2-2-9.2c-0.5-2.3-1.3-4-2.4-5.1c-1.1-1.1-2.5-1.6-3.9-1.4c-2.3,0.3-4.8,2.5-7,6.5c-0.5,0.9-1,1.7-1.6,2.7
			c-3.7,6.5-8.7,15.5-16.1,21.9c-5.2,4.6-10.5,6.6-19.4,9.8c-4.1,1.5-8.8,3.2-14.5,5.5c-20.4,8.4-25,19.4-25.2,27.2
			c-0.2,9.5,4.8,16.6,13.7,25.9c10.2,10.5,19.3,24.7,22,34.3c3.6,12.8,2,26.1,0.5,37.7c-1,8-2,15.5-1.3,22.3
			c0.5,4.8,1.9,8.3,4.1,10.5c1.7,1.7,3.9,2.6,6.3,2.5c2.7-0.2,5.3-1.5,7.1-3.6c6.4-7.8,9.7-19.8,14.2-38.6
			c6.8-28,12.3-36.6,46.7-50.9c27-11.2,40.5-29.2,44.1-41.3c1.1-4.1,0.7-8.6-1.1-10.4C231,350.9,229.4,350.8,228.3,351.8z"/>
		<path class="st10" d="M387.8,90.1l9.5,9.5c0,0,7.2,7.2,9.8,9.8c0.4-0.5,0.8-0.9,1.2-1.4l-19.3-19.3L387.8,90.1z"/>
		<path class="st10" d="M472.7,30.2c-1.4,1.4-3.7,1.3-5.2-0.1c-1.5-1.5-1.5-3.8-0.1-5.2l0.7-0.7l-0.5,0.1l-0.9,0.9
			c-1.5,1.5-1.4,4,0.1,5.5c1.6,1.6,4,1.6,5.5,0.1l0.9-0.9l0.1-0.5L472.7,30.2z"/>
		<path class="st10" d="M471.9,26.4l1-1l0.1-0.1c-0.1-0.1-0.2-0.2-0.3-0.4c-0.1-0.1-0.2-0.2-0.4-0.3l-3.4,3.4l0.7,0.7L471.9,26.4z"
			/>
		<polygon class="st10" points="464,29.9 464,29.9 463.9,29.9 464.9,25 464.5,25.1 463.4,30.4 467.5,34.6 472.9,33.4 473,33 
			468.2,34.1 		"/>
		<path class="st10" d="M447,44.8c-1.5-1.5-1.5-3.8-0.1-5.2l0.7-0.7l-0.5,0.1l-0.9,0.9c-1.5,1.5-1.4,4,0.1,5.5
			c1.6,1.6,4,1.6,5.5,0.1l0.9-0.9l0.1-0.5l-0.7,0.7C450.8,46.3,448.5,46.3,447,44.8z"/>
		<path class="st10" d="M451.3,41.1l1-1l0.1-0.1c-0.1-0.1-0.2-0.2-0.3-0.4c-0.1-0.1-0.2-0.2-0.4-0.3l-3.4,3.4l0.7,0.7L451.3,41.1z"
			/>
		<polygon class="st10" points="452.3,48.1 452.4,47.7 447.6,48.8 443.4,44.6 443.4,44.6 443.3,44.6 444.4,39.7 443.9,39.8 
			442.8,45.1 447,49.3 		"/>
		<path class="st10" d="M431.4,60.3l0.9-0.9l0.1-0.5l-0.7,0.7c-1.4,1.4-3.7,1.3-5.2-0.1c-1.5-1.5-1.5-3.8-0.1-5.2l0.7-0.7l-0.5,0.1
			l-0.9,0.9c-1.5,1.5-1.4,4,0.1,5.5C427.4,61.7,429.9,61.8,431.4,60.3z"/>
		<path class="st10" d="M430.8,55.8l1-1l0.1-0.1c-0.1-0.1-0.2-0.2-0.3-0.4c-0.1-0.1-0.2-0.2-0.4-0.3l-3.4,3.4l0.7,0.7L430.8,55.8z"
			/>
		<polygon class="st10" points="431.8,62.4 427,63.5 422.9,59.3 422.9,59.3 422.8,59.3 423.8,54.4 423.4,54.5 422.2,59.8 426.4,64 
			431.7,62.9 		"/>
		<path class="st10" d="M405.9,74.2c-1.5-1.5-1.5-3.8-0.1-5.2l0.7-0.7l-0.5,0.1l-0.9,0.9c-1.5,1.5-1.4,4,0.1,5.5
			c1.6,1.6,4,1.6,5.5,0.1l0.9-0.9l0.1-0.5l-0.7,0.7C409.7,75.8,407.3,75.7,405.9,74.2z"/>
		<path class="st10" d="M410.2,70.5l1-1l0.1-0.1c-0.1-0.1-0.2-0.2-0.3-0.4c-0.1-0.1-0.2-0.2-0.4-0.3l-3.4,3.4l0.7,0.7L410.2,70.5z"
			/>
		<polygon class="st10" points="402.3,74.1 402.3,74.1 402.2,74 403.3,69.1 402.8,69.2 401.7,74.5 405.9,78.7 411.2,77.6 
			411.3,77.1 406.5,78.2 		"/>
		<path class="st10" d="M433.4,84.7c-1.5-1.5-1.5-3.8-0.1-5.2l0.7-0.7l-0.5,0.1l-0.9,0.9c-1.5,1.5-1.4,4,0.1,5.5
			c1.6,1.6,4,1.6,5.5,0.1l0.9-0.9l0.1-0.5l-0.7,0.7C437.2,86.2,434.9,86.1,433.4,84.7z"/>
		<path class="st10" d="M438.8,79.9l0.1-0.1c-0.1-0.1-0.2-0.2-0.3-0.4c-0.1-0.1-0.2-0.2-0.4-0.3l-3.4,3.4l0.7,0.7l2.3-2.3
			L438.8,79.9z"/>
		<polygon class="st10" points="429.8,84.5 429.8,84.5 429.8,84.4 430.8,79.5 430.4,79.6 429.2,84.9 433.4,89.1 438.7,88 
			438.8,87.5 434,88.7 		"/>
		<path class="st10" d="M458,11l4.2,7.3l0.7-0.4l-4.2-7.3c-0.3-0.5-0.9-0.6-1.4-0.4l-1.2,0.7c-0.5,0.3-0.6,0.9-0.4,1.4l4.2,7.3
			c0.2-0.2,0.5-0.3,0.7-0.4l-4.2-7.3c0-0.2,0-0.2,0.1-0.3h0.2l5.6,9.6c0.2,0,0.2-0.1,0.3-0.2l-5.5-9.6c-0.1-0.1-0.1-0.1-0.1-0.1
			l0.7-0.5C457.7,11,457.9,11,458,11z"/>
		<path class="st10" d="M436.9,24.7l4.2,7.3l0.7-0.4l-4.2-7.3c-0.3-0.5-0.9-0.6-1.4-0.4l-1.2,0.7c-0.5,0.3-0.6,0.9-0.4,1.4l4.2,7.3
			c0.2-0.2,0.5-0.3,0.7-0.4l-4.2-7.3c0-0.2,0-0.2,0.1-0.3h0.2l5.6,9.6c0.2,0,0.2-0.1,0.3-0.2l-5.5-9.6c-0.1-0.1-0.1-0.1-0.1-0.1
			l0.7-0.5C436.6,24.6,436.8,24.6,436.9,24.7z"/>
		<path class="st10" d="M415.8,38.4l4.2,7.3l0.7-0.4l-4.2-7.3c-0.3-0.5-0.9-0.6-1.4-0.4l-1.2,0.7c-0.5,0.3-0.6,0.9-0.4,1.4l4.2,7.3
			c0.2-0.2,0.5-0.3,0.7-0.4l-4.2-7.3c0-0.2,0-0.2,0.1-0.3h0.2l5.6,9.6c0.2,0,0.2-0.1,0.3-0.2l-5.5-9.6c-0.1-0.1-0.1-0.1-0.1-0.1
			l0.7-0.5C415.5,38.3,415.7,38.3,415.8,38.4z"/>
		<path class="st10" d="M445.6,90.1c-0.2,0.2-0.3,0.5-0.5,0.6l6.7,5.1c0.1,0.1,0.1,0.2,0,0.3l-0.1,0.1l-8.9-6.7
			c-0.1,0.1-0.2,0.2-0.2,0.3l8.8,6.8c0.1,0,0.1,0,0.1,0l-0.5,0.7c-0.1,0-0.2,0.1-0.3,0l-6.7-5.1l-0.5,0.6l6.7,5.1
			c0.5,0.3,1.1,0.2,1.4-0.2l0.8-1.1c0.3-0.5,0.2-1.1-0.2-1.4L445.6,90.1z"/>
		<path class="st10" d="M396.6,60.6c0.2-0.2,0.5-0.3,0.7-0.4l-4.2-7.3c0-0.2,0-0.2,0.1-0.3h0.2l5.6,9.6c0.2,0,0.2-0.1,0.3-0.2
			l-5.5-9.6c-0.1-0.1-0.1-0.1-0.1-0.1l0.7-0.5c0.1,0,0.2,0,0.3,0.1l4.2,7.3l0.7-0.4l-4.2-7.3c-0.3-0.5-0.9-0.6-1.4-0.4l-1.2,0.7
			c-0.5,0.3-0.6,0.9-0.4,1.4L396.6,60.6z"/>
		<path class="st10" d="M62.5,460.4L62.5,460.4l-25.2-25.1c0,0,0,0,0,0c-0.5-0.5-0.8-0.8-0.9-0.8l-0.1,0.1c0,0,0,0,0,0l-2.7,2.7
			c-0.1,0.1,0.2,0.6,0.7,1l25.2,25.1c0.5,0.5,0.9,0.8,1,0.7l2.2-2.2c0,0,0,0,0,0l0.6-0.6C63.3,461.3,63,460.9,62.5,460.4L62.5,460.4
			z"/>
		<path class="st10" d="M62.5,460.4L62.5,460.4l-25.2-25.1c0,0,0,0,0,0c-0.5-0.5-0.8-0.8-0.9-0.8l-0.1,0.1c0,0,0,0,0,0l-0.4,0.7
			c-0.1,0.1,0.2,0.6,0.7,1l25.2,25.1c0.5,0.5,0.9,0.8,1,0.7l-0.1-0.2c0,0,0,0,0,0l0.6-0.6C63.3,461.3,63,460.9,62.5,460.4
			L62.5,460.4z"/>
		<path class="st10" d="M45.9,439.4l4.2-4.2c0.2-0.2,0.2-0.3,0.2-0.4l-2.4-2.4c0,0-0.2,0-0.4,0.2l-4.2,4.2c-0.2,0.2-0.2,0.3-0.2,0.4
			l2.4,2.4C45.6,439.7,45.8,439.6,45.9,439.4z"/>
		<path class="st10" d="M47,441.1l2.4,2.4c0,0,0.2,0,0.4-0.2l4.2-4.2c0.2-0.2,0.2-0.3,0.2-0.4l-2.4-2.4c0,0-0.2,0-0.4,0.2l-4.2,4.2
			C47,440.9,46.9,441,47,441.1z"/>
		<path class="st10" d="M50.8,444.9l2.4,2.4c0,0,0.2,0,0.4-0.2l4.2-4.2c0.2-0.2,0.2-0.3,0.2-0.4l-2.4-2.4c0,0-0.2,0-0.4,0.2
			l-4.2,4.2C50.9,444.7,50.8,444.9,50.8,444.9z"/>
		<path class="st10" d="M54.7,448.8l2.4,2.4c0,0,0.2,0,0.4-0.2l4.2-4.2c0.2-0.2,0.2-0.3,0.2-0.4l-2.4-2.4c0,0-0.2,0-0.4,0.2
			l-4.2,4.2C54.7,448.6,54.7,448.7,54.7,448.8z"/>
		<path class="st10" d="M62.9,448.1l-4.2,4.2c-0.2,0.2-0.2,0.3-0.2,0.4l2.4,2.4c0,0,0.2,0,0.4-0.2l4.2-4.2c0.2-0.2,0.2-0.3,0.2-0.4
			l-2.4-2.4C63.2,447.8,63.1,447.9,62.9,448.1z"/>
		
			<rect x="-15.8" y="267.8" transform="matrix(0.706 -0.7082 0.7082 0.706 -117.7063 252.6864)" class="st10" width="522.6" height="0.6"/>
		
			<rect x="-29.4" y="240.1" transform="matrix(0.7068 -0.7074 0.7074 0.7068 -92.1364 258.5532)" class="st10" width="590.5" height="0.6"/>
		
			<rect x="-29.5" y="245.2" transform="matrix(0.7075 -0.7068 0.7068 0.7075 -99.3494 250.9222)" class="st10" width="565.8" height="0.6"/>
		
			<rect x="-32.8" y="242.5" transform="matrix(0.7082 -0.706 0.706 0.7082 -98.8227 246.4914)" class="st10" width="563" height="0.6"/>
		
			<rect x="-32.7" y="247.8" transform="matrix(0.7089 -0.7053 0.7053 0.7089 -106.2622 238.7584)" class="st10" width="537.6" height="0.6"/>
	</g>
</g>
</svg>
