<?xml version="1.0" encoding="iso-8859-1"?>
<!-- Generator: Adobe Illustrator 22.1.0, SVG Export Plug-In . SVG Version: 6.00 Build 0)  -->
<svg version="1.1" id="_x36_" xmlns="http://www.w3.org/2000/svg" xmlns:xlink="http://www.w3.org/1999/xlink" x="0px" y="0px"
	 viewBox="0 0 512 484" style="enable-background:new 0 0 512 484;" xml:space="preserve">
<style type="text/css">
	.st0{fill:#F5C798;}
	.st1{fill:#BB2726;}
	.st2{opacity:0.1;}
	.st3{fill:#FFFFFF;}
	.st4{fill:#040000;}
	.st5{fill:#F5F5F5;}
	.st6{fill:#503F33;}
	.st7{fill:#EEE2B8;}
	.st8{opacity:0.15;fill:#040000;}
	.st9{fill:#C9AF86;}
	.st10{opacity:0.4;fill:#FFFFFF;}
</style>
<g>
	<g>
		<path class="st0" d="M471.9,46.2c-0.2,0.2-0.5,0.5-0.7,0.9c-0.9,1.2-1.7,2.7-2.4,4.6c-2.9,8.2-7.9,25.8-17.8,38.6
			c-2.1,2.8-4.5,5.4-7.1,7.6c-1.1,0.8-2.2,1.6-3.3,2.4c-4.8-3.5-17.4-14-35.7-2.9c-0.3,0.1-0.5,0.2-0.7,0.3l-20-20
			c0,0,0.2-0.3,0.5-0.8c1-1.8,3-6.4,1.5-12.2c-0.3-1.4,0.3-2.8,1.5-3.7c15.6-10,83.7-50.9,94.1-56.8c12.8-7.5,33.4,2,29.9,21.2
			c-0.7,3.8-2.2,6.9-4.1,9.3c-1.2,1.6-2.7,3-4.1,4.1c-6.1,4.4-14,5.3-18.7,4.9C481.4,43.3,475.9,42,471.9,46.2z"/>
	</g>
	<g>
		<path class="st1" d="M244.1,260.2c-7.6,12.7-9.9,23.2-1.1,32s23.9,19.2,47.4,0.3c10.8-8.7,28.1,3.3,14.2,25.2
			c-19.3,30.3-55.6,32.6-70.8,47.2c-14.9,14.4-19.2,37.6-30,60.1c-9.9,20.5-14.7,44-41.7,54.9c-26.9,10.9-66.9,0.9-112.9-45.1
			c-46-46-56-86-45.1-112.9c10.9-27,42.7-40.2,63.3-50c22.6-10.9,45.5-15.3,60.1-30c14.2-14.2,17.2-29.1,33-52.4
			c8.9-13.1,18.7-26.8,35.9-38c16.2-10.5,46.4-4.6,28.3,16.7c-19.6,23-18.2,40.5-9.4,49.3c8.8,8.8,19.3,6.5,32-1.1
			c8.2-4.9,11.8,0.3,15.9,4.4L244.1,260.2z"/>
	</g>
	<g class="st2">
		<path class="st3" d="M11.7,386.1C-1.4,360.7-2.8,338.8,4,322c10.9-27,42.7-40.2,63.2-50c22.6-10.9,45.5-15.3,60.1-30
			c14.2-14.2,17.2-29.1,32.9-52.4c8.9-13.2,18.7-26.8,35.9-38c14.7-9.5,40.9-5.6,32.2,11.1c-7.3-2.1-17.9-0.8-25.5,4.1
			c-17.2,11.2-27,24.8-35.9,38c-15.8,23.3-18.8,38.1-33,52.4c-14.6,14.7-37.6,19.2-60.1,30c-20.5,9.9-52.3,23-63.3,50
			C5.3,350.6,5,367.2,11.7,386.1z"/>
	</g>
	<g class="st2">
		<path class="st4" d="M161.3,456c-2.5-2.5-4-6-4.2-9.9c-0.1-1.6-0.1-3.2-0.2-5c-0.4-12-0.8-27-7.5-37.3c-2.7-4.2-6.9-9.4-13-16.1
			l-1.4-1.5l7.7-7.7l-37.3-37.3l-7.6,7.6l-1.5-1.6c-18-18.4-5.6-34.3,0.4-42c8.6-11,23.6-17.5,45.4-26.1c19.1-7.5,33.7-20.9,50.4-46
			c3.2-4.9,6.6-6.2,8.9-6.4c2.4-0.2,4.7,0.6,6.4,2.4c0.9,0.9,1.7,2.1,2.3,3.4c3.3,7.8,6.6,16.8,9.8,25.4
			c6.8,18.7,13.8,37.9,21.7,45.9c0.2,0.2,0.3,0.3,0.5,0.5c14.4,13.5,32.4,12.2,52.1-3.7c2.4-1.9,5.3-1.9,7.1,0
			c0.8,0.8,4.7,5.6-2.4,16.9c-9.2,14.5-22.9,19.9-36.2,25.2c-2.5,1-5.1,2-7.5,3.1c-10,4.3-19.5,8.4-26.1,14.7
			c-11.2,10.8-16.7,22.9-22.4,40.3c-4,12.1-14.4,34.9-24.2,50.5c-3.1,4.9-7.2,7.9-11.6,8.4C167.5,459.8,163.9,458.6,161.3,456z"/>
	</g>
	<g>
		<path class="st5" d="M180.8,449.9c9.3-14.8,19.8-37.3,24-50c5.9-17.8,11.5-30.2,22.9-41.2c6.8-6.6,16.5-10.8,26.7-15.1
			c15.1-6.5,32.2-10.8,42.8-27.4c5.2-8.2,4.1-12.8,2.7-14.2c-1.3-1.3-3.1-0.7-4.3,0.2c-21,16.9-39.8,17.7-54.9,3.6
			c-12.3-11.5-21.7-47.4-32.5-72.5c-2.5-5.8-8.8-6.6-13.8,1c-14.9,22.5-29.7,38.3-51.4,46.8c-22.9,9-36.6,15.2-44.5,25.5
			c-7.9,10.2-15.9,23.4-0.5,39.2l7.6-7.6l40.3,40.3l-7.8,7.8c5.5,6.1,10.2,11.7,13.2,16.4c7.9,12.4,7.4,30.7,8,43.4
			C159.8,457.1,172.6,463,180.8,449.9z"/>
		<path class="st5" d="M145.1,436.7c-3.5-20.8-10.3-25.9-16.4-25c-9.3,1.3-11.1,11.5-5.3,33.5c3.2,12,8,18.9,11.6,22.8
			c2.4,2.5,6.6,1.6,7.7-1.8C144.7,459.8,147.1,448.9,145.1,436.7z"/>
		<path class="st5" d="M141.7,377.3l-35-35c-0.6-0.6-1.7-0.6-2.3,0L87,359.7c-0.6,0.6-0.6,1.7,0,2.3l35,35c0.6,0.6,1.7,0.6,2.3,0
			l17.4-17.4C142.4,379,142.4,377.9,141.7,377.3z"/>
	</g>
	<g>
		<path class="st6" d="M221.2,285.5c-1-0.4-2-1.1-2.8-1.9l-20.2-20.2c-0.8-0.8-1.5-1.8-1.9-2.8l8.9-8.9l0.7-0.7l113.6-110.7l1.3-1.3
			l17.8-17.3l1.3-1.3l17.7-17.3l1.3-1.3l17.7-17.3l1.3-1.3l5.8-5.7l20.4,20.4l-5.7,5.8l-1.3,1.3l-17.3,17.8l-1.3,1.3l-17.3,17.7
			l-1.3,1.3l-17.3,17.7l-1.3,1.3L230.8,275.8l-0.7,0.7L221.2,285.5z"/>
	</g>
	<g>
		<path class="st7" d="M469.2,8l2.8-0.6l1.1,1.8c1.9-1.1,3.5-2,4.8-2.8l-1.1-1.8l1.9-2.1L477.3,0c-0.8,0.1-1.6,0.3-2.5,0.6
			c-0.9,0.3-1.8,0.7-2.7,1.2c-0.8,0.5-1.7,1.1-2.4,1.8c-0.7,0.7-1.3,1.3-1.8,2L469.2,8z"/>
		<path class="st7" d="M453.5,17.4l2.8-0.6l1.1,1.9c1.6-1,3.2-1.9,4.7-2.9l-1-1.8l1.9-2.1l-1.4-2.4c-0.8,0.1-1.6,0.3-2.5,0.6
			c-0.8,0.3-1.8,0.7-2.7,1.2c-0.8,0.5-1.7,1.1-2.4,1.7c-0.7,0.7-1.4,1.4-1.8,2L453.5,17.4z"/>
		<path class="st7" d="M437.7,26.9l2.8-0.6l1.1,1.9c1.6-0.9,3.2-1.9,4.8-2.8l-1.1-1.9l1.9-2.1l-1.4-2.4c-0.7,0.1-1.6,0.3-2.5,0.6
			c-0.9,0.3-1.8,0.8-2.7,1.2c-0.9,0.6-1.7,1.1-2.4,1.8c-0.7,0.6-1.4,1.2-1.8,1.9L437.7,26.9z"/>
		<path class="st7" d="M430.6,34.8l-1.1-1.9l1.9-2.2l-1.4-2.4c-0.8,0.1-1.7,0.3-2.5,0.6c-0.9,0.3-1.8,0.8-2.7,1.2
			c-0.9,0.6-1.7,1.1-2.4,1.8c-0.7,0.6-1.4,1.2-1.8,1.9l1.4,2.4l2.8-0.6l1.1,1.9C427.4,36.7,429,35.7,430.6,34.8z"/>
		<path class="st7" d="M415.6,40.2l-1.4-2.4c-0.8,0.1-1.6,0.3-2.5,0.6c-0.8,0.3-1.8,0.7-2.7,1.3c-0.9,0.5-1.8,1.1-2.4,1.8
			c-0.7,0.6-1.3,1.3-1.8,1.9l1.4,2.4l2.8-0.7l1.2,2c1.6-0.9,3.1-1.9,4.7-2.9l-1.2-1.9L415.6,40.2z"/>
		<path class="st7" d="M399.8,49.7l-1.4-2.4c-0.8,0.1-1.6,0.3-2.5,0.6c-0.8,0.3-1.8,0.7-2.7,1.3c-0.9,0.5-1.7,1.1-2.4,1.7
			c-0.7,0.6-1.3,1.3-1.9,2l1.5,2.4l2.8-0.6l1.3,2.2c1.4-0.8,3-1.9,4.7-2.9l-1.2-2.2L399.8,49.7z"/>
		<path class="st7" d="M483.5,19c0.1-0.4,0.1-0.8,0.1-1.1c0-0.2,0.1-0.3,0-0.5c0,0,0-0.1,0-0.1c0,0,0,0,0-0.1
			c0.2-0.7,0.1-1.6-0.4-2.2l-0.1,0.1l0,0l-0.4,0.4c-0.1-0.1-0.1-0.2-0.2-0.2c-0.1-0.1-0.2-0.2-0.2-0.2l0.4-0.4l0,0l0,0l0.1-0.1
			c-0.7-0.5-1.5-0.7-2.2-0.4c0,0,0,0,0,0c0,0-0.1,0-0.1,0c-0.2,0-0.3,0-0.5,0c-0.4,0-0.8,0-1.1,0.1c-0.2,0-0.3,0-0.5,0.1
			c-0.7,0.2-1.3,0.5-1.8,1c-1.7,1.7-1.7,4.3,0,6c1.7,1.7,4.3,1.7,6,0c0.5-0.5,0.8-1.2,1-1.8C483.4,19.3,483.4,19.2,483.5,19z"/>
		<path class="st7" d="M470.1,28c0.1-0.4,0.1-0.8,0.1-1.1c0-0.2,0.1-0.3,0-0.5c0,0,0-0.1,0-0.1c0,0,0,0,0-0.1
			c0.2-0.7,0.1-1.6-0.4-2.2l-0.1,0.1l0,0l-0.4,0.4c-0.1-0.1-0.1-0.2-0.2-0.2c-0.1-0.1-0.2-0.2-0.2-0.2l0.4-0.4l0,0l0,0l0.1-0.1
			c-0.7-0.5-1.5-0.7-2.2-0.4c0,0,0,0-0.1,0c0,0-0.1,0-0.1,0c-0.2,0-0.3,0-0.5,0c-0.4,0-0.8,0-1.1,0.1c-0.2,0-0.3,0-0.5,0.1
			c-0.7,0.2-1.3,0.5-1.8,1c-1.7,1.7-1.7,4.3,0,6c1.7,1.7,4.3,1.7,6,0c0.5-0.5,0.8-1.2,1-1.8C470.1,28.3,470.1,28.1,470.1,28z"/>
		<path class="st7" d="M454.3,37.8c0.1-0.4,0.1-0.8,0.1-1.1c0-0.2,0.1-0.3,0-0.5c0,0,0-0.1,0-0.1c0,0,0,0,0-0.1
			c0.2-0.7,0.1-1.6-0.4-2.2l-0.1,0.1l0,0l-0.4,0.4c-0.1-0.1-0.1-0.2-0.2-0.2c-0.1-0.1-0.2-0.2-0.2-0.2l0.4-0.4l0,0l0,0l0.1-0.1
			c-0.7-0.5-1.5-0.7-2.2-0.4c0,0,0,0-0.1,0c0,0-0.1,0-0.1,0c-0.2,0-0.3,0-0.5,0c-0.4,0-0.8,0-1.1,0.1c-0.2,0-0.3,0-0.5,0.1
			c-0.7,0.2-1.3,0.5-1.8,1c-1.7,1.7-1.7,4.3,0,6c1.7,1.7,4.3,1.7,6,0c0.5-0.5,0.8-1.2,1-1.8C454.3,38.1,454.3,38,454.3,37.8z"/>
		<path class="st7" d="M438.5,47.6c0.1-0.4,0.1-0.8,0.1-1.1c0-0.2,0.1-0.3,0-0.5c0,0,0-0.1,0-0.1c0,0,0,0,0-0.1
			c0.2-0.7,0.1-1.6-0.4-2.2l-0.1,0.1l0,0l-0.4,0.4c-0.1-0.1-0.1-0.2-0.2-0.2c-0.1-0.1-0.2-0.2-0.2-0.2l0.4-0.4l0,0l0,0l0.1-0.1
			c-0.7-0.5-1.5-0.7-2.2-0.4c0,0,0,0-0.1,0c0,0-0.1,0-0.1,0c-0.2,0-0.3,0-0.5,0c-0.4,0-0.8,0-1.1,0.1c-0.2,0-0.3,0-0.5,0.1
			c-0.7,0.2-1.3,0.5-1.8,1c-1.7,1.7-1.7,4.3,0,6c1.7,1.7,4.3,1.7,6,0c0.5-0.5,0.8-1.2,1-1.8C438.4,47.9,438.4,47.8,438.5,47.6z"/>
		<path class="st7" d="M422.7,57.5c0.1-0.4,0.1-0.8,0.1-1.1c0-0.2,0.1-0.3,0-0.5c0,0,0-0.1,0-0.1c0,0,0,0,0-0.1
			c0.2-0.7,0.1-1.6-0.4-2.2l-0.1,0.1l0,0l-0.4,0.4c-0.1-0.1-0.1-0.2-0.2-0.2c-0.1-0.1-0.2-0.2-0.2-0.2l0.4-0.4l0,0l0,0l0.1-0.1
			c-0.7-0.5-1.5-0.7-2.2-0.4c0,0,0,0-0.1,0c0,0-0.1,0-0.1,0c-0.2,0-0.3,0-0.5,0c-0.4,0-0.8,0-1.1,0.1c-0.2,0-0.3,0-0.5,0.1
			c-0.7,0.2-1.3,0.5-1.8,1c-1.7,1.7-1.7,4.3,0,6c1.7,1.7,4.3,1.7,6,0c0.5-0.5,0.8-1.2,1-1.8C422.6,57.8,422.6,57.6,422.7,57.5z"/>
		<path class="st7" d="M406.8,67.3c0.1-0.4,0.1-0.8,0.1-1.1c0-0.2,0.1-0.3,0-0.5c0,0,0-0.1,0-0.1c0,0,0,0,0-0.1
			c0.2-0.7,0.1-1.6-0.4-2.2l-0.1,0.1l0,0l-0.4,0.4c-0.1-0.1-0.1-0.2-0.2-0.2c-0.1-0.1-0.2-0.2-0.2-0.2l0.4-0.4l0,0l0,0l0.1-0.1
			c-0.7-0.5-1.5-0.7-2.2-0.4c0,0,0,0-0.1,0c0,0-0.1,0-0.1,0c-0.2,0-0.3,0-0.5,0c-0.4,0-0.8,0-1.1,0.1c-0.2,0-0.3,0-0.5,0.1
			c-0.7,0.2-1.3,0.5-1.8,1c-1.7,1.7-1.7,4.3,0,6c1.7,1.7,4.3,1.7,6,0c0.5-0.5,0.8-1.2,1-1.8C406.8,67.6,406.8,67.4,406.8,67.3z"/>
		<polygon class="st7" points="232,144 229.2,149.4 228.3,148 226.2,149.3 230.2,155.6 232.2,154.3 231.3,152.9 237.5,152.6 
			238.5,152 233,143.4 		"/>
		<polygon class="st7" points="220.3,333.5 184.6,358.6 126.2,383.4 127.5,386.3 186.2,361.4 222.2,336.1 		"/>
	</g>
	<g>
		<path class="st8" d="M140.9,437.4c-0.4-2.3-0.8-4.3-1.2-6.1c-4.4,2.6-9.5,3.5-14.4,2.8c0.5,2.8,1.2,6.2,2.2,10
			c3,11.3,7.4,17.6,10.6,20.9l0,0c0,0,0.1,0.1,0.3,0.1c0.2,0,0.2-0.1,0.2-0.2C140.7,458.5,142.7,448.6,140.9,437.4z"/>
		<path class="st8" d="M217,295.5l-29.2-29.2c-2.6-2.6-6.9-2.5-9.5,0.1c-2.6,2.6-2.6,6.8,0,9.4l29.2,29.2c2.7,2.7,6.9,2.7,9.5,0.1
			C219.6,302.4,219.6,298.1,217,295.5z M182.3,273.5c-0.9-0.9-0.9-2.4,0-3.3c0.9-0.9,2.4-0.9,3.3,0c0.9,0.9,0.9,2.4,0,3.3
			C184.7,274.4,183.2,274.4,182.3,273.5z M188,279.2c-0.9-0.9-0.9-2.4,0-3.3c0.9-0.9,2.4-0.9,3.3,0c0.9,0.9,0.9,2.4,0,3.3
			C190.4,280.1,188.9,280.1,188,279.2z M193.7,284.9c-0.9-0.9-0.9-2.4,0-3.3c0.9-0.9,2.4-0.9,3.3,0c0.9,0.9,0.9,2.4,0,3.3
			C196.1,285.8,194.6,285.8,193.7,284.9z M199.4,290.6c-0.9-0.9-0.9-2.4,0-3.3c0.9-0.9,2.4-0.9,3.3,0c0.9,0.9,0.9,2.4,0,3.3
			C201.7,291.5,200.3,291.5,199.4,290.6z M205,296.2c-0.9-0.9-0.9-2.4,0-3.3c0.9-0.9,2.4-0.9,3.3,0c0.9,0.9,0.9,2.4,0,3.3
			C207.4,297.1,205.9,297.1,205,296.2z M210.7,301.9c-0.9-0.9-0.9-2.4,0-3.3c0.9-0.9,2.4-0.9,3.3,0c0.9,0.9,0.9,2.4,0,3.3
			C213.1,302.8,211.6,302.8,210.7,301.9z"/>
		<path class="st8" d="M186.6,325.9l-29.2-29.2c-2.6-2.6-6.8-2.6-9.4,0c-2.6,2.6-2.7,6.9-0.1,9.5l29.2,29.2c2.7,2.7,6.9,2.6,9.5,0
			S189.2,328.5,186.6,325.9z M152,303.9c-0.9-0.9-0.9-2.4,0-3.3c0.9-0.9,2.4-0.9,3.3,0c0.9,0.9,0.9,2.4,0,3.3
			C154.4,304.8,152.9,304.8,152,303.9z M157.6,309.5c-0.9-0.9-0.9-2.4,0-3.3c0.9-0.9,2.4-0.9,3.3,0c0.9,0.9,0.9,2.4,0,3.3
			C160,310.4,158.5,310.4,157.6,309.5z M163.4,315.2c-0.9-0.9-0.9-2.4,0-3.3c0.9-0.9,2.4-0.9,3.3,0c0.9,0.9,0.9,2.4,0,3.3
			C165.7,316.1,164.3,316.1,163.4,315.2z M169,320.9c-0.9-0.9-0.9-2.4,0-3.3c0.9-0.9,2.4-0.9,3.3,0c0.9,0.9,0.9,2.4,0,3.3
			C171.4,321.8,169.9,321.8,169,320.9z M174.7,326.6c-0.9-0.9-0.9-2.4,0-3.3c0.9-0.9,2.4-0.9,3.3,0c0.9,0.9,0.9,2.4,0,3.3
			C177.1,327.5,175.6,327.5,174.7,326.6z M180.3,332.2c-0.9-0.9-0.9-2.4,0-3.3c0.9-0.9,2.4-0.9,3.3,0c0.9,0.9,0.9,2.4,0,3.3
			C182.7,333.1,181.3,333.1,180.3,332.2z"/>
		<path class="st8" d="M153.8,358.7l-22.8-34.5c-2-3.1-6.1-4-9.3-1.9c-3.1,2-3.9,6.2-1.9,9.2l22.7,34.6c2,3.1,6.2,3.9,9.3,1.9
			C155,366,155.8,361.8,153.8,358.7z M124.4,330.1c-0.7-1-0.4-2.4,0.7-3.2c1.1-0.7,2.5-0.4,3.2,0.6c0.7,1.1,0.4,2.5-0.7,3.3
			C126.5,331.5,125.1,331.2,124.4,330.1z M128.8,336.9c-0.7-1.1-0.5-2.5,0.6-3.2c1-0.7,2.5-0.4,3.2,0.7c0.7,1.1,0.5,2.5-0.6,3.2
			C130.9,338.3,129.4,337.9,128.8,336.9z M133.2,343.6c-0.7-1.1-0.4-2.5,0.7-3.3c1-0.7,2.5-0.3,3.2,0.7c0.7,1.1,0.4,2.6-0.6,3.2
			C135.3,345,133.9,344.6,133.2,343.6z M137.6,350.3c-0.7-1.1-0.4-2.5,0.6-3.2c1.1-0.7,2.5-0.4,3.2,0.6c0.7,1.1,0.4,2.5-0.7,3.3
			C139.8,351.6,138.3,351.3,137.6,350.3z M142,357c-0.7-1.1-0.5-2.5,0.6-3.2c1.1-0.7,2.5-0.4,3.2,0.7c0.7,1,0.4,2.4-0.7,3.2
			C144.2,358.3,142.6,358,142,357z M146.4,363.7c-0.7-1.1-0.4-2.5,0.7-3.3c1.1-0.6,2.5-0.3,3.2,0.7c0.7,1,0.4,2.4-0.7,3.2
			C148.5,365.1,147.1,364.8,146.4,363.7z"/>
		<path class="st8" d="M90.1,359c-0.6-0.6-1.3-1.1-1.4-0.9l-3.3,3.3c-0.1,0.1,0.3,0.7,0.9,1.4l35,35c0.6,0.6,1.3,1.1,1.4,0.9
			l3.3-3.3c0.1-0.1-0.3-0.7-1-1.4L90.1,359z"/>
		<path class="st8" d="M125.6,371.9c0,0-0.3,0.1-0.5,0.3l-5.5,5.6c-0.2,0.2-0.3,0.4-0.3,0.5l2.5,2.5c0,0,0.3-0.1,0.5-0.3l5.5-5.6
			c0.2-0.2,0.3-0.4,0.3-0.5L125.6,371.9z"/>
		<path class="st8" d="M121.9,368.3c0,0-0.3,0.1-0.5,0.3l-5.5,5.6c-0.2,0.2-0.3,0.4-0.3,0.5l2.5,2.5c0,0,0.3-0.1,0.5-0.3l5.5-5.6
			c0.2-0.2,0.3-0.4,0.3-0.5L121.9,368.3z"/>
		<path class="st8" d="M118.3,364.6c0,0-0.3,0.1-0.5,0.3l-5.5,5.6c-0.2,0.2-0.3,0.4-0.3,0.5l2.5,2.5c0,0,0.3-0.1,0.5-0.3l5.5-5.6
			c0.2-0.2,0.3-0.4,0.3-0.5L118.3,364.6z"/>
		<path class="st8" d="M114.7,361c0,0-0.3,0.1-0.5,0.3l-5.5,5.6c-0.2,0.2-0.3,0.4-0.3,0.5l2.5,2.5c0,0,0.3-0.1,0.5-0.3l5.5-5.6
			c0.2-0.2,0.3-0.4,0.3-0.5L114.7,361z"/>
		<path class="st8" d="M111,357.3c0,0-0.3,0.1-0.5,0.3l-5.5,5.6c-0.2,0.2-0.3,0.4-0.3,0.5l2.5,2.5c0,0,0.3-0.1,0.5-0.3l5.5-5.6
			c0.2-0.2,0.3-0.4,0.3-0.5L111,357.3z"/>
		<path class="st8" d="M107.4,353.7c0,0-0.3,0.1-0.5,0.3l-5.5,5.6c-0.2,0.2-0.3,0.4-0.3,0.5l2.5,2.5c0,0,0.3-0.1,0.5-0.3l5.5-5.6
			c0.2-0.2,0.3-0.4,0.3-0.5L107.4,353.7z"/>
		<path class="st8" d="M471.9,46.2c-0.2,0.2-0.5,0.5-0.7,0.9c-1,1.1-1.9,2.8-2.7,4.9c-2.9,8.1-7.8,25.4-17.6,38.3
			c-2.1,2.8-4.5,5.4-7.1,7.6c-1.1,0.8-2.2,1.6-3.3,2.4c-4.8-3.5-17.4-14-35.7-2.9l-2.3,2.3l-20.4-20.4l2.4-2.4l16.4,16.4
			c18.6-11.2,31.3-0.7,36,2.8c17.2-11.3,24.6-37.8,28.3-48.5c3.7-10.6,11.5-8.5,15.9-8.1c7.8,0.6,23.9-2.3,26.8-18.3
			c1-5.2,0.2-9.6-1.7-13.2c4.1,4.1,6.5,10.2,5,17.7c-0.7,3.6-2,6.7-3.8,9c-1.2,1.6-2.7,3-4.1,4.1c-6.1,4.6-14.2,5.5-18.9,5.2
			C481.1,43.7,475.9,42.3,471.9,46.2z"/>
		<path class="st8" d="M138.4,465c-0.2,0-0.3,0-0.3-0.1l0,0c-0.1-0.1-0.3-0.3-0.4-0.5c1.5-6.1,2.5-14.1,1-22.9
			c-0.4-2.3-0.8-4.3-1.2-6.1c-3.4,2.1-7.4,3.1-11.3,3c-0.4-1.6-0.7-3.1-0.9-4.4c4.9,0.8,10-0.1,14.4-2.8c0.4,1.8,0.9,3.9,1.2,6.1
			c1.9,11.2-0.2,21.1-2.3,27.4C138.6,464.9,138.6,465,138.4,465z"/>
		<path class="st8" d="M473.1,9.2c1.9-1.1,3.5-2,4.8-2.8l-1.1-1.8l-1.9,2.2L472,7.4L473.1,9.2z"/>
		<path class="st8" d="M457.3,18.7c1.6-1,3.2-1.9,4.7-2.9l-1-1.8l-2,2.2l-2.8,0.6L457.3,18.7z"/>
		<path class="st8" d="M441.5,28.1c1.6-0.9,3.2-1.9,4.8-2.8l-1.1-1.9l-1.9,2.2l-2.8,0.7L441.5,28.1z"/>
		<path class="st8" d="M429.4,32.9l-1.9,2.2l-2.8,0.7l1.1,1.9c1.6-0.9,3.2-1.9,4.8-2.8L429.4,32.9z"/>
		<path class="st8" d="M411.7,44.5l-2.8,0.6l1.2,2c1.6-0.9,3.1-1.9,4.7-2.9l-1.2-1.9L411.7,44.5z"/>
		<path class="st8" d="M395.9,54l-2.8,0.6l1.3,2.2c1.4-0.9,3-1.9,4.7-2.9l-1.2-2.2L395.9,54z"/>
		<path class="st8" d="M478.5,19.1c1,1,2.7,1.1,3.7,0.1l0.6-0.6l0.1-0.3l-0.5,0.5c-0.9,0.9-2.5,0.9-3.4-0.1c-1-1-1-2.5-0.1-3.4
			l0.5-0.5l-0.3,0.1l-0.6,0.6C477.4,16.4,477.4,18.1,478.5,19.1z"/>
		<path class="st8" d="M481.7,16.2l0.7-0.7l0.1-0.1c-0.1-0.1-0.1-0.2-0.2-0.2c-0.1-0.1-0.2-0.2-0.2-0.2l-2.3,2.3l0.5,0.5L481.7,16.2
			z"/>
		<polygon class="st8" points="482.5,20.6 479.3,21.4 476.5,18.6 476.5,18.6 476.5,18.5 477.1,15.3 476.9,15.4 476.1,18.9 
			478.9,21.7 482.4,20.9 		"/>
		<path class="st8" d="M465.2,28.1c1,1,2.7,1.1,3.7,0.1l0.6-0.6l0.1-0.3l-0.5,0.5c-0.9,0.9-2.5,0.9-3.4-0.1c-1-1-1-2.5-0.1-3.4
			l0.5-0.5l-0.3,0.1l-0.6,0.6C464.2,25.4,464.2,27.1,465.2,28.1z"/>
		<path class="st8" d="M468.5,25.2l0.7-0.7l0.1-0.1c-0.1-0.1-0.1-0.2-0.2-0.2c-0.1-0.1-0.2-0.2-0.2-0.2l-2.3,2.3l0.5,0.5L468.5,25.2
			z"/>
		<polygon class="st8" points="466.1,30.3 463.3,27.6 463.3,27.6 463.2,27.5 463.9,24.3 463.6,24.4 462.9,27.9 465.6,30.7 
			469.2,29.9 469.2,29.6 		"/>
		<path class="st8" d="M450.2,33.6l-0.3,0.1l-0.6,0.6c-1,1-1,2.6,0.1,3.7c1,1,2.7,1.1,3.7,0.1l0.6-0.6l0.1-0.3l-0.5,0.5
			c-0.9,0.9-2.5,0.9-3.4-0.1c-1-1-1-2.5-0.1-3.4L450.2,33.6z"/>
		<path class="st8" d="M452.7,35l0.7-0.7l0.1-0.1c-0.1-0.1-0.1-0.2-0.2-0.2c-0.1-0.1-0.2-0.2-0.2-0.2l-2.3,2.3l0.5,0.5L452.7,35z"/>
		<polygon class="st8" points="450.2,40.2 447.5,37.4 447.5,37.4 447.4,37.3 448.1,34.1 447.8,34.2 447.1,37.7 449.8,40.5 
			453.4,39.7 453.4,39.4 		"/>
		<path class="st8" d="M433.5,44.1c-1,1-1,2.6,0.1,3.7c1,1,2.7,1.1,3.7,0.1l0.6-0.6l0.1-0.3l-0.5,0.5c-0.9,0.9-2.5,0.9-3.4-0.1
			c-1-1-1-2.5-0.1-3.4l0.5-0.5l-0.3,0.1L433.5,44.1z"/>
		<path class="st8" d="M437.4,43.9c-0.1-0.1-0.2-0.2-0.2-0.2l-2.3,2.3l0.5,0.5l1.5-1.5l0.7-0.7l0.1-0.1
			C437.6,44,437.5,43.9,437.4,43.9z"/>
		<polygon class="st8" points="434.4,50 431.7,47.2 431.7,47.2 431.6,47.2 432.3,43.9 432,44 431.2,47.5 434,50.3 437.5,49.5 
			437.6,49.2 		"/>
		<path class="st8" d="M417.8,57.6c1,1,2.7,1.1,3.7,0.1l0.6-0.6l0.1-0.3l-0.5,0.5c-0.9,0.9-2.5,0.9-3.4-0.1c-1-1-1-2.5-0.1-3.4
			l0.5-0.5l-0.3,0.1l-0.6,0.6C416.7,54.9,416.8,56.5,417.8,57.6z"/>
		<path class="st8" d="M421.6,53.7c-0.1-0.1-0.2-0.2-0.2-0.2l-2.3,2.3l0.5,0.5l1.5-1.5l0.7-0.7l0.1-0.1
			C421.8,53.8,421.7,53.8,421.6,53.7z"/>
		<polygon class="st8" points="418.6,59.8 415.8,57.1 415.8,57 415.8,57 416.5,53.8 416.2,53.8 415.4,57.4 418.2,60.1 421.7,59.4 
			421.8,59.1 		"/>
		<path class="st8" d="M402,67.4c1,1,2.7,1.1,3.7,0.1l0.6-0.6l0.1-0.3l-0.5,0.5c-0.9,0.9-2.5,0.9-3.4-0.1c-1-1-1-2.5-0.1-3.4
			l0.5-0.5l-0.3,0.1l-0.6,0.6C400.9,64.7,400.9,66.4,402,67.4z"/>
		<path class="st8" d="M405.8,63.5c-0.1-0.1-0.2-0.2-0.2-0.2l-2.3,2.3l0.5,0.5l1.5-1.5l0.7-0.7l0.1-0.1
			C405.9,63.7,405.9,63.6,405.8,63.5z"/>
		<polygon class="st8" points="402.8,69.6 400,66.9 400,66.9 400,66.8 400.7,63.6 400.4,63.7 399.6,67.2 402.4,70 405.9,69.2 
			406,68.9 		"/>
	</g>
	<g>
		<path class="st3" d="M205.8,349l11.2-7.7c0,0,0,0,0,0l9.2-8.4c0.3-0.3,0.2-0.9-0.1-1.4c-0.4-0.5-0.9-0.8-1.3-0.6l-11.1,5.7
			c0,0,0,0-0.1,0l-11.2,7.7c-0.3,0.2-0.3,0.9,0.1,1.4l1.8,2.7C204.9,348.9,205.5,349.2,205.8,349z"/>
		<path class="st3" d="M181.1,424.9c-2.3-4-7.5-5.3-11.5-3c-4,2.4-5.3,7.5-3,11.5c2.3,4,7.5,5.3,11.5,3
			C182.1,434.1,183.5,428.9,181.1,424.9z"/>
		<path class="st3" d="M175.7,394.7c-1.2-4.5-5.8-7.1-10.3-6c-4.5,1.2-7.2,5.8-6,10.3c1.2,4.5,5.8,7.1,10.3,6
			C174.3,403.7,176.9,399.1,175.7,394.7z"/>
	</g>
	<g>
		<polygon class="st9" points="173.7,426.1 172.7,424.3 172.2,424.6 172.6,425.2 170.6,426.4 170.9,426.9 172.9,425.7 173.3,426.3 
					"/>
		<path class="st9" d="M174.5,428c0-0.1,0-0.3,0-0.4c0-0.1-0.1-0.3-0.2-0.4c-0.1-0.1-0.2-0.2-0.3-0.3c-0.1-0.1-0.2-0.1-0.4-0.2
			c-0.1,0-0.2,0-0.3,0c-0.1,0-0.2,0-0.3,0.1c-0.1,0-0.2,0.1-0.3,0.1c-0.1,0-0.2,0.1-0.3,0.2c-0.1,0.1-0.2,0.1-0.3,0.2
			c-0.1,0.1-0.2,0.1-0.2,0.2c-0.1,0.1-0.1,0.1-0.2,0.2c0,0.1-0.1,0.2-0.1,0.3c0,0.1,0,0.3,0,0.4c0,0.1,0.1,0.3,0.2,0.4
			c0.1,0.1,0.2,0.2,0.3,0.3c0.1,0.1,0.2,0.1,0.4,0.2c0.1,0,0.2,0,0.3,0c0.1,0,0.2,0,0.3-0.1c0.1,0,0.2-0.1,0.3-0.1
			c0.1,0,0.2-0.1,0.3-0.2c0.1-0.1,0.2-0.1,0.3-0.2c0.1-0.1,0.2-0.1,0.2-0.2c0.1-0.1,0.1-0.1,0.2-0.2
			C174.5,428.2,174.5,428.1,174.5,428z M173.7,428.2c-0.1,0-0.2,0.1-0.3,0.2c-0.1,0.1-0.2,0.1-0.3,0.2c-0.1,0-0.1,0.1-0.2,0.1
			c-0.1,0-0.1,0-0.1,0c0,0-0.1,0-0.1,0c-0.1,0-0.1,0-0.2-0.1c-0.1,0-0.1-0.1-0.1-0.2c0-0.1-0.1-0.1-0.1-0.2c0-0.1,0-0.1,0-0.2
			c0,0,0-0.1,0.1-0.1c0,0,0.1-0.1,0.1-0.1c0,0,0.1-0.1,0.2-0.1c0.1,0,0.2-0.1,0.3-0.2c0.1-0.1,0.2-0.1,0.3-0.2
			c0.1,0,0.1-0.1,0.2-0.1c0.1,0,0.1,0,0.1,0c0,0,0.1,0,0.1,0c0.1,0,0.1,0,0.2,0.1c0.1,0,0.1,0.1,0.1,0.2c0,0.1,0.1,0.1,0.1,0.2
			c0,0.1,0,0.1,0,0.2c0,0,0,0.1,0,0.1c0,0-0.1,0.1-0.1,0.1C173.8,428.1,173.8,428.2,173.7,428.2z"/>
		<polygon class="st9" points="176,430 174.5,430.9 175.4,429 175.2,428.6 172.8,430 173.1,430.5 174.5,429.6 173.6,431.5 
			173.9,431.9 176.3,430.5 		"/>
		<polygon class="st9" points="177.1,432.9 177.5,432.6 176.6,431 174.2,432.5 175.1,434 175.6,433.8 174.9,432.7 175.5,432.3 
			176,433.3 176.5,433 175.9,432.1 176.5,431.8 		"/>
		<polygon class="st9" points="164.7,396.6 164.6,396.2 162.6,396.7 162.7,397.2 163.5,397 164,399.2 164.6,399.1 164,396.8 		"/>
		<path class="st9" d="M167.4,397.8c0-0.1,0-0.2,0-0.3c0-0.1,0-0.2,0-0.3c0-0.1-0.1-0.2-0.1-0.3c0-0.1-0.1-0.2-0.1-0.3
			c0-0.1-0.1-0.2-0.1-0.3c0-0.1-0.1-0.2-0.1-0.2c-0.1-0.1-0.1-0.1-0.2-0.2c-0.1-0.1-0.2-0.1-0.4-0.1c-0.1,0-0.3,0-0.4,0
			c-0.2,0-0.3,0.1-0.4,0.2c-0.1,0.1-0.2,0.2-0.3,0.3c-0.1,0.1-0.1,0.2-0.1,0.3c0,0.1,0,0.2,0,0.3c0,0.1,0,0.2,0,0.3
			c0,0.1,0.1,0.2,0.1,0.3c0,0.1,0.1,0.2,0.1,0.3c0,0.1,0.1,0.2,0.1,0.3c0,0.1,0.1,0.2,0.1,0.2c0.1,0.1,0.1,0.1,0.2,0.2
			c0.1,0.1,0.2,0.1,0.4,0.1c0.1,0,0.3,0,0.4,0c0.2,0,0.3-0.1,0.4-0.2c0.1-0.1,0.2-0.2,0.3-0.3C167.3,398,167.4,397.9,167.4,397.8z
			 M166.5,398.1c-0.1,0-0.1,0-0.2,0c-0.1,0-0.1,0-0.2-0.1c0,0-0.1,0-0.1-0.1c0,0,0-0.1-0.1-0.1c0-0.1-0.1-0.1-0.1-0.2
			c0-0.1-0.1-0.2-0.1-0.3c0-0.1-0.1-0.2-0.1-0.3c0-0.1,0-0.2,0-0.2c0-0.1,0-0.1,0-0.1c0,0,0-0.1,0-0.1c0-0.1,0.1-0.1,0.1-0.1
			c0,0,0.1-0.1,0.2-0.1c0.1,0,0.1,0,0.2,0c0.1,0,0.1,0,0.2,0.1c0,0,0.1,0,0.1,0.1c0,0,0.1,0.1,0.1,0.1c0,0.1,0.1,0.1,0.1,0.2
			c0,0.1,0.1,0.2,0.1,0.3c0,0.1,0.1,0.2,0.1,0.3c0,0.1,0,0.2,0,0.2c0,0.1,0,0.1,0,0.1c0,0,0,0.1,0,0.1c0,0.1-0.1,0.1-0.1,0.1
			C166.6,398,166.6,398.1,166.5,398.1z"/>
		<polygon class="st9" points="169,395 169.4,396.7 167.9,395.3 167.4,395.4 168.2,398.1 168.7,398 168.2,396.3 169.8,397.7 
			170.2,397.6 169.5,394.9 		"/>
		<polygon class="st9" points="171.3,396.8 171.1,396.1 172.2,395.8 172,395.4 171,395.7 170.8,395 172,394.7 171.9,394.2 
			170.1,394.7 170.9,397.4 172.6,396.9 172.5,396.5 		"/>
	</g>
	<g>
		<polygon class="st10" points="124.3,376.4 123.7,375.8 477,20.7 477.6,21.2 		"/>
		<polygon class="st10" points="120.6,372.7 120.1,372.1 464.4,26.7 464.9,27.3 		"/>
		<polygon class="st10" points="117,369.1 116.4,368.5 445.4,39.2 445.9,39.8 		"/>
		<polygon class="st10" points="113.3,365.4 112.8,364.8 432.7,45.3 433.2,45.9 		"/>
		<polygon class="st10" points="109.7,361.8 109.1,361.2 415.3,56.1 415.9,56.7 		"/>
		<polygon class="st10" points="106,358.1 105.5,357.6 397.8,67.1 398.3,67.7 		"/>
		<path class="st10" d="M233.2,145.8l-3.9,3.8l-0.3-0.5l-1.8,1.1c0.7,0.6,1.3,1.2,1.8,1.9l1.4-0.9l-0.3-0.5l5.1-1.9l1-0.6l-2-3.1
			L233.2,145.8z"/>
		<path class="st10" d="M182.5,424.1c-2.8-4.8-8.9-6.3-13.7-3.5c-4.8,2.8-6.3,8.9-3.5,13.7c2.8,4.8,8.9,6.3,13.7,3.5
			C183.7,435,185.3,428.9,182.5,424.1z"/>
		<path class="st10" d="M177.3,394.2c-1.4-5.3-6.9-8.5-12.2-7.1c-5.3,1.4-8.5,6.9-7.1,12.2c1.4,5.3,6.9,8.5,12.2,7.1
			C175.5,405,178.7,399.6,177.3,394.2z"/>
		<polygon class="st10" points="398.7,103.7 378.2,83.1 376.8,84.4 397.4,105 		"/>
		<polygon class="st10" points="380.1,122.7 359.1,101.7 357.7,103 378.8,124.1 		"/>
		<polygon class="st10" points="361.5,141.8 340,120.4 338.6,121.7 360.2,143.2 		"/>
		<polygon class="st10" points="342.8,160.9 320.9,139 319.6,140.3 341.6,162.3 		"/>
		
			<rect x="311.4" y="153.4" transform="matrix(0.7071 -0.7071 0.7071 0.7071 -28.3364 270.5097)" class="st10" width="1.9" height="32"/>
		
			<rect x="292.6" y="172.3" transform="matrix(0.7071 -0.7071 0.7071 0.7071 -47.1848 262.7031)" class="st10" width="1.9" height="32"/>
		
			<rect x="273.7" y="191.1" transform="matrix(0.7071 -0.7071 0.7071 0.7071 -66.0347 254.8952)" class="st10" width="1.9" height="32"/>
		
			<rect x="254.9" y="210" transform="matrix(0.7071 -0.7071 0.7071 0.7071 -84.8839 247.0876)" class="st10" width="1.9" height="32"/>
		
			<rect x="227.1" y="237.8" transform="matrix(0.7071 -0.7071 0.7071 0.7071 -112.672 235.5774)" class="st10" width="1.9" height="32"/>
		
			<rect x="218.7" y="246.2" transform="matrix(0.7071 -0.7071 0.7071 0.7071 -121.1061 232.0831)" class="st10" width="1.9" height="32"/>
		
			<rect x="210.2" y="254.7" transform="matrix(0.7071 -0.7071 0.7071 0.7071 -129.5398 228.5905)" class="st10" width="1.9" height="32"/>
		
			<rect x="239" y="225.9" transform="matrix(0.7071 -0.7071 0.7071 0.7071 -100.8119 240.49)" class="st10" width="1.9" height="32"/>
		<path class="st10" d="M338.8,138.8c-1.2,1.2-1.2,3.1,0,4.3c1.2,1.2,3.1,1.2,4.3,0c1.2-1.2,1.2-3.1,0-4.3S340,137.6,338.8,138.8z"
			/>
		<path class="st10" d="M300.1,177.4c-1.2,1.2-1.2,3.1,0,4.3c1.2,1.2,3.1,1.2,4.3,0c1.2-1.2,1.2-3.1,0-4.3
			C303.2,176.3,301.3,176.3,300.1,177.4z"/>
		<path class="st10" d="M263.1,214.4c-1.2,1.2-1.2,3.1,0,4.3s3.1,1.2,4.3,0c1.2-1.2,1.2-3.1,0-4.3
			C266.2,213.3,264.3,213.3,263.1,214.4z"/>
		<path class="st10" d="M213.2,264.3c-1.2,1.2-1.2,3.1,0,4.3c1.2,1.2,3.1,1.2,4.3,0c1.2-1.2,1.2-3.1,0-4.3
			C216.3,263.1,214.4,263.1,213.2,264.3z"/>
		<path class="st10" d="M226.9,240.8c-1.2,1.2-1.2,3.1,0,4.3c1.2,1.2,3.1,1.2,4.3,0c1.2-1.2,1.2-3.1,0-4.3S228.1,239.6,226.9,240.8z
			"/>
		<path class="st10" d="M237.3,251.2c-1.2,1.2-1.2,3.1,0,4.3c1.2,1.2,3.1,1.2,4.3,0c1.2-1.2,1.2-3.1,0-4.3
			C240.4,250,238.5,250,237.3,251.2z"/>
	</g>
</g>
</svg>
