<?xml version="1.0" encoding="iso-8859-1"?>
<!-- Uploaded to: SVG Repo, www.svgrepo.com, Generator: SVG Repo Mixer Tools -->
<svg version="1.1" id="Layer_1" xmlns="http://www.w3.org/2000/svg" xmlns:xlink="http://www.w3.org/1999/xlink" 
	 viewBox="0 0 512 512" xml:space="preserve">
<g>
	<path style="fill:#8CC63F;" d="M224.104,470.282c-3.285,0-6.116-2.468-6.494-5.81L169.27,36.694
		c-0.406-3.591,2.176-6.832,5.767-7.237c3.578-0.407,6.832,2.176,7.237,5.767l48.34,427.778c0.406,3.591-2.176,6.832-5.767,7.237
		C224.598,470.268,224.351,470.282,224.104,470.282z"/>
	
		<rect x="49.837" y="227.191" transform="matrix(-0.1123 -0.9937 0.9937 -0.1123 23.3176 488.3004)" style="fill:#8CC63F;" width="359.868" height="13.088"/>
	<path style="fill:#8CC63F;" d="M275.468,364.51c-3.285,0-6.116-2.468-6.493-5.81l-27.003-238.945
		c-0.406-3.591,2.176-6.832,5.767-7.237c3.576-0.406,6.832,2.176,7.237,5.767l27.003,238.945c0.406,3.591-2.176,6.832-5.767,7.237
		C275.962,364.495,275.713,364.51,275.468,364.51z"/>
	
		<rect x="218.383" y="224.235" transform="matrix(-0.1123 -0.9937 0.9937 -0.1123 96.3226 547.6077)" style="fill:#8CC63F;" width="148.764" height="13.088"/>
	
		<rect x="272.427" y="198.369" transform="matrix(-0.1123 -0.9937 0.9937 -0.1123 153.9887 547.3926)" style="fill:#8CC63F;" width="98.149" height="13.088"/>
</g>
<g>
	<path style="fill:#FDBB00;" d="M397.701,125.89c0,3.883-0.731,7.82-2.247,11.615L294.42,389.666l-37.179,92.779v1.058
		l-61.936-2.116L374.362,136.97c2.378-4.591,0.36-10.241-4.406-12.28c-1.429-0.611-2.945-0.818-4.406-0.654
		c-2.661,0.273-5.137,1.734-6.631,4.133l-19.108,30.679c-18.071,29.01-60.202,29.338-78.721,0.6L210.529,81
		c-5.802-8.998-15.77-14.429-26.469-14.418c-1.112,0-2.203,0.055-3.283,0.174c-15.814,1.658-28.127,15.05-28.116,31.312l0.011,1.167
		l-9.641-86.42l8.67-1.723c37.135-4.112,73.344,13.415,93.171,45.075l48.87,78.055c6.107,9.761,20.133,10.284,26.96,1.003
		l20.504-27.887c9.205-12.509,26.207-16.381,39.917-9.074C391.604,103.848,397.701,114.635,397.701,125.89z"/>
	<path style="fill:#FDBB00;" d="M195.304,481.386l61.936,2.116h30.483L316.079,512H164.8l-2.901-28.498L114.392,16.021
		c-0.818-7.22,3.872-13.905,10.928-15.618C126.465,0.131,127.61,0,128.722,0c7.154,0,13.469,5.355,14.309,12.815l9.641,86.42v0.033
		L195.304,481.386z"/>
</g>
</svg>