<?xml version="1.0" encoding="UTF-8"?> <svg xmlns="http://www.w3.org/2000/svg" id="Layer_1" height="512px" viewBox="0 0 512 512" width="512px"><g><path d="m256 342c-33.084 0-60 26.916-60 60s26.916 60 60 60 60-26.916 60-60-26.916-60-60-60zm0 100c-22.056 0-40-17.944-40-40s17.944-40 40-40 40 17.944 40 40-17.944 40-40 40z" data-original="#ff8888" class="active-path" fill="#ff8888"></path><path d="m483.07 2.93c-1.86-1.86-4.44-2.93-7.07-2.93h-440c-2.63 0-5.21 1.07-7.07 2.93s-2.93 4.44-2.93 7.07v492c0 2.63 1.07 5.21 2.93 7.07s4.44 2.93 7.07 2.93h440c2.63 0 5.21-1.07 7.07-2.93s2.93-4.44 2.93-7.07v-68c0-5.51-4.49-10-10-10s-10 4.49-10 10v58h-420v-472h420v324c0 5.51 4.49 10 10 10s10-4.49 10-10v-334c0-2.63-1.07-5.21-2.93-7.07z" data-original="#ff8888" class="active-path" fill="#ff8888"></path><circle cx="476" cy="389" r="10" data-original="#ff8888" class="active-path" fill="#ff8888"></circle><path d="m416 270c16.542 0 30-13.458 30-30v-170c0-5.523-4.477-10-10-10h-40c-5.523 0-10 4.477-10 10v30h-20v-40c0-5.523-4.477-10-10-10h-40c-5.523 0-10 4.477-10 10v40h-20v-50c0-5.523-4.477-10-10-10h-40c-5.523 0-10 4.477-10 10v50h-20v-40c0-5.523-4.477-10-10-10h-40c-5.523 0-10 4.477-10 10v40h-20v-30c0-5.523-4.477-10-10-10h-40c-5.523 0-10 4.477-10 10v170c0 16.542 13.458 30 30 30s30-13.458 30-30v-80h30.367c-3.446.272-6.908.475-10.367.557v99.443c0 16.542 13.458 30 30 30s30-13.458 30-30v-100h20v120c0 16.542 13.458 30 30 30s30-13.458 30-30v-120h20v100c0 16.542 13.458 30 30 30s30-13.458 30-30v-100h20v80c0 16.542 13.458 30 30 30zm10-30c0 5.514-4.486 10-10 10s-10-4.486-10-10v-80h20zm-20-160h20v20h-20zm-80-10h20v30h-20zm-80-10h20v40h-20zm-80 10h20v30h-20zm-80 10h20v20h-20zm20 160c0 5.514-4.486 10-10 10s-10-4.486-10-10v-80h20zm80 20c0 5.514-4.486 10-10 10s-10-4.486-10-10v-100h20zm80 20c0 5.514-4.486 10-10 10s-10-4.486-10-10v-120h20zm80-20c0 5.514-4.486 10-10 10s-10-4.486-10-10v-100h20zm-260-120v-20h340v20z" data-original="#ff8888" class="active-path" fill="#ff8888"></path></g></svg> 