<?xml version="1.0" encoding="iso-8859-1"?>
<!-- Uploaded to: SVG Repo, www.svgrepo.com, Generator: SVG Repo Mixer Tools -->
<svg version="1.1" id="Layer_1" xmlns="http://www.w3.org/2000/svg" xmlns:xlink="http://www.w3.org/1999/xlink" 
	 viewBox="0 0 512 512" xml:space="preserve">
<path style="fill:#FF9811;" d="M266.238,239.229L256,231.685l-10.238,7.544c-4.515,3.326-110.571,82.512-110.571,172.852
	c0,27.435,13.076,52.983,36.82,71.937C194.615,502.063,224.442,512,256,512s61.385-9.937,83.989-27.98
	c23.744-18.953,36.82-44.501,36.82-71.937C376.809,321.742,270.753,242.556,266.238,239.229z"/>
<path style="fill:#BF720D;" d="M266.238,239.229L256,231.685V512c31.558,0,61.385-9.937,83.989-27.98
	c23.744-18.953,36.82-44.501,36.82-71.937C376.809,321.742,270.753,242.556,266.238,239.229z"/>
<g>
	<polygon style="fill:#50412E;" points="284.764,0 227.236,0 227.236,103.551 238.742,103.551 238.742,310.652 273.258,310.652 
		273.258,103.551 284.764,103.551 	"/>
	<rect x="209.978" y="396.944" style="fill:#50412E;" width="92.045" height="34.517"/>
	<circle style="fill:#50412E;" cx="256" cy="350.921" r="17.258"/>
</g>
</svg>