<?xml version="1.0" encoding="iso-8859-1"?>
<!-- Uploaded to: SVG Repo, www.svgrepo.com, Generator: SVG Repo Mixer Tools -->
<svg height="800px" width="800px" version="1.1" id="Capa_1" xmlns="http://www.w3.org/2000/svg" xmlns:xlink="http://www.w3.org/1999/xlink" 
	 viewBox="0 0 512.001 512.001" xml:space="preserve">
<path style="fill:#E9D535;" d="M288.252,440.411c9.445-9.447,9.449-24.762,0-34.209c-15.717-15.719-15.719-41.299-0.003-57.016
	c7.617-7.615,17.743-11.808,28.512-11.808c10.773,0,20.895,4.195,28.512,11.808c5.269,5.267,12.669,7.812,20.058,6.901
	c7.396-0.91,13.956-5.175,17.789-11.563l34.209-57.016c27.915-46.529,26.588-90.549-3.638-120.776L345.273,98.31
	c-15.459-15.459-35.185-23.63-57.048-23.629c-20.174-0.002-41.616,6.725-63.728,19.991l-57.017,34.214
	c-6.388,3.832-10.653,10.392-11.563,17.784c-0.91,7.394,1.635,14.795,6.901,20.06c15.72,15.72,15.72,41.299-0.003,57.017
	c-7.613,7.615-17.736,11.806-28.505,11.806c-10.769,0-20.892-4.193-28.505-11.806c-4.536-4.538-10.69-7.086-17.107-7.086
	c-6.412,0-12.567,2.548-17.102,7.084l-45.611,45.611C9.231,286.112,0.001,308.385,0.001,332.078c0,23.692,9.223,45.966,25.977,62.72
	l91.227,91.225c16.754,16.751,39.028,25.978,62.721,25.978c23.688-0.002,45.964-9.229,62.718-25.978L288.252,440.411z"/>
<path style="fill:#DD9520;" d="M288.252,440.411c9.445-9.447,9.449-24.762,0-34.209c-15.717-15.719-15.719-41.299-0.003-57.016
	c7.617-7.615,17.743-11.808,28.512-11.808c10.773,0,20.895,4.195,28.512,11.808c5.269,5.267,12.669,7.812,20.058,6.901
	c7.396-0.91,13.956-5.175,17.789-11.563l34.209-57.016c27.915-46.529,26.588-90.549-3.638-120.776l-34.209-34.214l-307.89,307.89
	l45.614,45.614C133.961,502.772,156.235,512,179.928,512c23.688-0.002,45.964-9.229,62.718-25.978L288.252,440.411z"/>
<path style="fill:#5B699C;" d="M288.252,314.973l-91.227-91.225c-9.447-9.445-24.762-9.445-34.208,0
	c-9.449,9.447-9.449,24.762,0,34.211l91.225,91.227c4.722,4.722,10.915,7.083,17.102,7.083c6.193,0.002,12.382-2.361,17.106-7.083
	C297.699,339.737,297.699,324.421,288.252,314.973z"/>
<path style="fill:#2D4175;" d="M288.252,314.973l-45.614-45.611l-34.209,34.209l45.614,45.614
	c4.722,4.722,10.915,7.083,17.102,7.083c6.193,0.002,12.382-2.361,17.106-7.083C297.699,339.737,297.699,324.421,288.252,314.973z"
	/>
<path style="fill:#DD9520;" d="M504.917,52.695l-5.701-5.701l5.698-5.699c9.449-9.447,9.449-24.762,0-34.209
	c-9.442-9.445-24.762-9.445-34.206,0l-5.702,5.702l-5.702-5.704c-9.45-9.447-24.762-9.445-34.213,0.002
	c-9.445,9.447-9.442,24.762,0,34.209l5.704,5.702L71.595,406.2c-9.447,9.445-9.447,24.761,0,34.211
	c4.723,4.722,10.916,7.084,17.104,7.084c6.193-0.002,12.382-2.363,17.107-7.084l359.2-359.205l5.702,5.701
	c4.723,4.723,10.913,7.084,17.102,7.084s12.382-2.363,17.106-7.084C514.362,77.459,514.361,62.144,504.917,52.695z"/>
<path style="fill:#AF6D00;" d="M504.917,52.695l-5.701-5.701l5.698-5.699c9.449-9.447,9.449-24.762,0-34.209L71.592,440.409
	l0.002,0.003c4.723,4.722,10.916,7.084,17.104,7.084c6.193-0.002,12.382-2.363,17.107-7.084l359.2-359.205l5.702,5.701
	c4.723,4.723,10.913,7.084,17.102,7.084s12.382-2.363,17.106-7.084C514.362,77.459,514.361,62.144,504.917,52.695z"/>
<path style="fill:#5B699C;" d="M105.805,440.404c9.442-9.447,9.442-24.762-0.006-34.209c-9.449-9.445-24.764-9.445-34.211,0.006
	l-22.8,22.808c-9.445,9.447-9.444,24.766,0.006,34.209c4.722,4.723,10.911,7.083,17.101,7.084c6.193,0,12.385-2.364,17.109-7.088
	L105.805,440.404z"/>
<path style="fill:#2D4175;" d="M105.805,440.404c9.442-9.447,9.442-24.759-0.003-34.206l-57.014,57.017
	c0.002,0,0.003,0.003,0.006,0.005c4.722,4.723,10.911,7.083,17.101,7.084c6.193,0,12.385-2.364,17.109-7.088L105.805,440.404z"/>
</svg>