<?xml version="1.0" encoding="iso-8859-1"?>
<!-- Uploaded to: SVG Repo, www.svgrepo.com, Generator: SVG Repo Mixer Tools -->
<svg fill="#000000" height="800px" width="800px" version="1.1" id="Layer_1" xmlns="http://www.w3.org/2000/svg" xmlns:xlink="http://www.w3.org/1999/xlink" 
	 viewBox="0 0 512 512" xml:space="preserve">
<g>
	<g>
		<path d="M489.052,143.406v-14.638c0-17.52-14.253-31.773-31.773-31.773h-38.249c-17.52,0-31.773,14.254-31.773,31.773v14.331
			h-19.641v-14.331c0-17.52-14.253-31.773-31.773-31.773h-38.249c-17.52,0-31.773,14.254-31.773,31.773v14.331H246.18v-14.331
			c0-17.52-14.253-31.773-31.773-31.773h-38.25c-17.52,0-31.773,14.254-31.773,31.773v14.331h-19.64v-14.331
			c0-17.52-14.253-31.773-31.773-31.773H54.723c-17.519,0-31.773,14.254-31.773,31.773v14.638C9.975,145.371,0,156.598,0,170.113
			v67.204c0,12.728,9.044,23.851,21.505,26.446l1.445,0.301V300.3c0,17.52,14.253,31.773,31.773,31.773h38.25
			c17.52,0,31.773-14.253,31.773-31.773v-15.03l19.64,4.089v38.585c0,17.519,14.253,31.773,31.773,31.773h38.25
			c17.519,0,31.773-14.253,31.773-31.773v-17.378l19.641,4.096v40.926c0,17.519,14.253,31.773,31.773,31.773h38.249
			c17.52,0,31.773-14.253,31.773-31.773v-19.721l19.641,4.089v43.276c0,17.519,14.253,31.773,31.773,31.773h38.249
			c17.52,0,31.773-14.253,31.773-31.773v-23.811c4.698-0.712,9.177-2.65,12.975-5.739c6.337-5.153,9.971-12.792,9.971-20.959
			v-162.61C512,156.599,502.026,145.372,489.052,143.406z M22.95,247.654c-4.175-1.648-7.048-5.737-7.048-10.338v-67.204
			c0-4.692,2.928-8.705,7.048-10.333V247.654z M108.844,300.3h-0.001c0,8.752-7.12,15.872-15.872,15.872H54.723
			c-8.751,0-15.872-7.12-15.872-15.872V128.768c0-8.752,7.12-15.872,15.872-15.872h38.25c8.752,0,15.872,7.121,15.872,15.872V300.3z
			 M144.385,273.117l-19.64-4.089V159.001h19.64V273.117z M230.279,327.944c0,8.751-7.12,15.872-15.872,15.872h-38.25
			c-8.752,0-15.872-7.12-15.872-15.872V128.767c0-8.752,7.12-15.872,15.872-15.872h38.25c8.751,0,15.872,7.121,15.872,15.872
			V327.944z M265.822,298.419l-19.641-4.096V159.001h19.641V298.419z M351.715,355.588c0,8.751-7.12,15.872-15.872,15.872h-38.249
			c-8.752,0-15.872-7.12-15.872-15.872V128.767c0-8.752,7.12-15.872,15.872-15.872h38.249c8.752,0,15.872,7.121,15.872,15.872
			V355.588z M387.258,323.713l-19.641-4.089V159.001h19.641V323.713z M457.279,399.103h-38.249c-8.752,0-15.872-7.12-15.872-15.872
			V128.767c0-8.752,7.12-15.872,15.872-15.872h38.249c8.752,0,15.872,7.121,15.872,15.872v254.465h0
			C473.151,391.983,466.031,399.103,457.279,399.103z M491.996,341.344c-0.9,0.731-1.895,1.298-2.944,1.712V159.782
			c4.119,1.627,7.045,5.641,7.045,10.332v162.609h0.001C496.099,336.081,494.604,339.225,491.996,341.344z"/>
	</g>
</g>
<g>
	<g>
		<circle cx="73.13" cy="159.765" r="7.922"/>
	</g>
</g>
<g>
	<g>
		<circle cx="73.13" cy="269.399" r="7.922"/>
	</g>
</g>
<g>
	<g>
		<circle cx="195.278" cy="159.765" r="7.922"/>
	</g>
</g>
<g>
	<g>
		<circle cx="316.732" cy="159.765" r="7.922"/>
	</g>
</g>
<g>
	<g>
		<circle cx="438.165" cy="159.765" r="7.922"/>
	</g>
</g>
<g>
	<g>
		<circle cx="195.278" cy="288.48" r="7.922"/>
	</g>
</g>
<g>
	<g>
		<circle cx="316.69" cy="307.562" r="7.922"/>
	</g>
</g>
<g>
	<g>
		<circle cx="438.165" cy="340.944" r="7.922"/>
	</g>
</g>
</svg>